<svg xmlns="http://www.w3.org/2000/svg" viewBox="0 0 859.84 348.07"><defs><style>.cls-1{fill:#22611e;}.cls-2{fill:#23a858;}.cls-3{fill:#539252;}.cls-4{fill:#679f66;}.cls-5{fill:#033105;fill-opacity:0.05;}.cls-10,.cls-13,.cls-6,.cls-7,.cls-8{fill:none;}.cls-6{stroke:#f0f0f0;}.cls-7{stroke:#08510b;}.cls-8{stroke:#09510c;}.cls-9{fill:#a3a3a3;}.cls-10{stroke:#1bd264;}.cls-10,.cls-13{stroke-width:2px;}.cls-11{fill:#a6cee3;}.cls-12{fill:#1f78b4;}.cls-13{stroke:#9e1414;}.cls-14{fill:#84a683;}</style></defs><g id="Camada_2" data-name="Camada 2"><g id="Camada_1-2" data-name="Camada 1"><path class="cls-1" d="M381.78,11.24a3.57,3.57,0,0,1,1.69,1.19,3,3,0,0,1,.61,1.93,2.89,2.89,0,0,1-1.33,2.55,6.87,6.87,0,0,1-3.85.9h-6.8V5.21h6.44a6.27,6.27,0,0,1,3.67.9,2.78,2.78,0,0,1,1.26,2.4,3,3,0,0,1-.45,1.62A3.05,3.05,0,0,1,381.78,11.24Zm-6.16-3.45v2.43h2.45q1.8,0,1.8-1.23t-1.8-1.2Zm3,7.45c1.25,0,1.87-.43,1.87-1.28s-.62-1.28-1.87-1.28h-3v2.56Zm10-7.2h-3.87V5.21H396V8h-3.85v9.77h-3.56Zm15,10a7.64,7.64,0,0,1-3.57-.83,6.34,6.34,0,0,1-3.36-5.73,6.42,6.42,0,0,1,.9-3.38,6.17,6.17,0,0,1,2.46-2.32A7.41,7.41,0,0,1,403.65,5a7.74,7.74,0,0,1,3.11.61,6,6,0,0,1,2.3,1.77L406.8,9.39a3.76,3.76,0,0,0-3-1.48,3.72,3.72,0,0,0-1.84.45,3.18,3.18,0,0,0-1.24,1.28,3.88,3.88,0,0,0-.43,1.87,4,4,0,0,0,.43,1.89A3.2,3.2,0,0,0,402,14.66a3.82,3.82,0,0,0,4.81-1l2.26,2a5.89,5.89,0,0,1-2.3,1.76A7.57,7.57,0,0,1,403.65,18.07Zm11.2-15.41h3l-5.94,17h-3Zm13.32,8.58a3.57,3.57,0,0,1,1.69,1.19,3,3,0,0,1,.61,1.93,2.89,2.89,0,0,1-1.33,2.55,6.87,6.87,0,0,1-3.85.9h-6.81V5.21h6.45a6.27,6.27,0,0,1,3.67.9,2.78,2.78,0,0,1,1.26,2.4,3,3,0,0,1-.45,1.62A3.05,3.05,0,0,1,428.17,11.24ZM422,7.79v2.43h2.45q1.8,0,1.8-1.23t-1.8-1.2Zm3,7.45c1.25,0,1.87-.43,1.87-1.28s-.62-1.28-1.87-1.28h-3v2.56Zm13-.77h-1.95v3.34H432.5V5.21h5.76a7.15,7.15,0,0,1,3,.58,4.26,4.26,0,0,1,1.94,1.62,4.36,4.36,0,0,1,.69,2.47,4.39,4.39,0,0,1-.65,2.39,4.28,4.28,0,0,1-1.82,1.58l2.72,4h-3.82Zm2.25-4.59a1.72,1.72,0,0,0-.56-1.37A2.44,2.44,0,0,0,438,8h-2v3.69h2a2.55,2.55,0,0,0,1.66-.47A1.71,1.71,0,0,0,440.26,9.88ZM446,5.21h3.57V15h6v2.82H446Z"/><path class="cls-2" d="M31.85,8.21v12.6H28.28V11H25.94V8.21ZM43.66,18v2.82H33.85V18.58l4.72-4.41a4.5,4.5,0,0,0,.91-1.1,2,2,0,0,0,.24-.93,1.17,1.17,0,0,0-.42-1,1.87,1.87,0,0,0-1.2-.34,2.64,2.64,0,0,0-1.3.33,2.52,2.52,0,0,0-.95.89L33.2,10.59a5.15,5.15,0,0,1,2.07-1.93A6.65,6.65,0,0,1,38.42,8,6.47,6.47,0,0,1,41,8.43a3.86,3.86,0,0,1,1.73,1.35,3.33,3.33,0,0,1,.63,2,4.35,4.35,0,0,1-.45,1.94,7.36,7.36,0,0,1-1.69,2L38.8,18ZM47,21a2,2,0,0,1-1.46-.58,2,2,0,0,1-.59-1.46,2,2,0,0,1,.57-1.46A2.1,2.1,0,0,1,47,16.92a2.06,2.06,0,0,1,1.48.56A2,2,0,0,1,49,18.94a2,2,0,0,1-.59,1.46A2,2,0,0,1,47,21Zm10-7.73a4.13,4.13,0,0,1,2.39,1.3,3.34,3.34,0,0,1,.85,2.32,3.71,3.71,0,0,1-.61,2.07,4.26,4.26,0,0,1-1.84,1.55,7.16,7.16,0,0,1-3,.58,10.87,10.87,0,0,1-2.65-.33,7.92,7.92,0,0,1-2.25-.92l1.3-2.68a5.38,5.38,0,0,0,1.66.77,6.54,6.54,0,0,0,1.83.27,2.7,2.7,0,0,0,1.46-.34,1.07,1.07,0,0,0,.54-1c0-.81-.64-1.22-1.93-1.22H53.19V13.4L55.44,11h-5V8.21h9.11v2.23Zm11-.46a4.69,4.69,0,0,1,2.18.5,3.71,3.71,0,0,1,1.56,1.4,3.64,3.64,0,0,1,.6,2.07A4,4,0,0,1,71.65,19a4.32,4.32,0,0,1-1.78,1.51,5.83,5.83,0,0,1-2.5.53,5.69,5.69,0,0,1-4.27-1.61,6.32,6.32,0,0,1-1.57-4.61,7.77,7.77,0,0,1,.83-3.7,5.7,5.7,0,0,1,2.36-2.38A7.33,7.33,0,0,1,68.23,8a9.07,9.07,0,0,1,2,.23,5.35,5.35,0,0,1,1.66.69l-1.3,2.55a3.92,3.92,0,0,0-2.32-.64,3.2,3.2,0,0,0-2.21.75,3.18,3.18,0,0,0-1,2.18A4.21,4.21,0,0,1,68,12.79Zm-.83,5.74a1.72,1.72,0,0,0,1.22-.44,1.62,1.62,0,0,0,0-2.32,1.73,1.73,0,0,0-1.24-.43,1.8,1.8,0,0,0-1.26.45,1.47,1.47,0,0,0-.48,1.15,1.51,1.51,0,0,0,.46,1.15A1.89,1.89,0,0,0,67.15,18.53Z"/><path class="cls-3" d="M35.64,36.9a1.73,1.73,0,0,1-.6,1.34,2.78,2.78,0,0,1-1.72.64V40h-.64V38.88a4.57,4.57,0,0,1-1.39-.27,3,3,0,0,1-1-.6l.37-.78a2.8,2.8,0,0,0,.91.55,3.69,3.69,0,0,0,1.15.25V35.71a6.5,6.5,0,0,1-1.17-.37,2,2,0,0,1-.78-.59,1.57,1.57,0,0,1-.31-1A1.81,1.81,0,0,1,31,32.39a2.72,2.72,0,0,1,1.69-.64V30.61h.64v1.13a5.05,5.05,0,0,1,1.1.18,3.33,3.33,0,0,1,.93.43l-.33.8a3.61,3.61,0,0,0-1.7-.56v2.33a9.07,9.07,0,0,1,1.2.38,2.06,2.06,0,0,1,.79.58A1.53,1.53,0,0,1,35.64,36.9ZM31.4,33.69a.78.78,0,0,0,.33.67,2.65,2.65,0,0,0,.95.4V32.6a1.7,1.7,0,0,0-1,.38A.91.91,0,0,0,31.4,33.69ZM33.32,38a1.77,1.77,0,0,0,1-.34.92.92,0,0,0,.34-.72.77.77,0,0,0-.35-.67,3.33,3.33,0,0,0-1-.42Zm8.23-.08v.87h-5v-.68l2.85-2.75a3.55,3.55,0,0,0,.7-.86,1.65,1.65,0,0,0,.18-.74,1,1,0,0,0-.39-.85,1.76,1.76,0,0,0-1.1-.31,2.21,2.21,0,0,0-1.79.76l-.68-.59A2.78,2.78,0,0,1,37.36,32a3.92,3.92,0,0,1,1.49-.28,2.73,2.73,0,0,1,1.75.53,1.73,1.73,0,0,1,.65,1.42A2.39,2.39,0,0,1,41,34.74a4.17,4.17,0,0,1-.91,1.14L38,37.94Zm1.68.93a.67.67,0,0,1-.68-.69.62.62,0,0,1,.2-.48.66.66,0,0,1,.48-.2.68.68,0,0,1,.47.19.7.7,0,0,1,.19.49.69.69,0,0,1-.2.5A.62.62,0,0,1,43.23,38.87ZM50,37.94v.87h-5v-.68l2.85-2.75a3.32,3.32,0,0,0,.7-.86,1.65,1.65,0,0,0,.18-.74,1,1,0,0,0-.39-.85,1.74,1.74,0,0,0-1.1-.31,2.22,2.22,0,0,0-1.79.76l-.68-.59A2.78,2.78,0,0,1,45.76,32a4,4,0,0,1,1.49-.28,2.71,2.71,0,0,1,1.75.53,1.73,1.73,0,0,1,.65,1.42,2.39,2.39,0,0,1-.24,1.06,4,4,0,0,1-.91,1.14l-2.14,2.06Zm5.84,0v.87h-5v-.68l2.85-2.75a3.32,3.32,0,0,0,.7-.86,1.65,1.65,0,0,0,.18-.74,1,1,0,0,0-.39-.85,1.74,1.74,0,0,0-1.1-.31,2.22,2.22,0,0,0-1.79.76l-.68-.59A2.86,2.86,0,0,1,51.6,32a4,4,0,0,1,1.49-.28,2.69,2.69,0,0,1,1.75.53,1.71,1.71,0,0,1,.65,1.42,2.39,2.39,0,0,1-.24,1.06,4,4,0,0,1-.91,1.14L52.2,37.94Z"/><path class="cls-2" d="M67,35.71H65.17V37.5h-.84V35.71H62.51v-.79h1.82v-1.8h.84v1.8H67Zm3.24-3.9v7h-1V32.68H67.66v-.87Zm2.29,7.06a.66.66,0,0,1-.48-.19.69.69,0,0,1-.2-.5.66.66,0,0,1,.2-.48.67.67,0,0,1,.48-.2.67.67,0,0,1,.47.19.66.66,0,0,1,.19.49.69.69,0,0,1-.2.5A.62.62,0,0,1,72.52,38.87Zm6.08-3.73a2.18,2.18,0,0,1,.93.66,1.71,1.71,0,0,1,.32,1,1.81,1.81,0,0,1-.35,1.1,2,2,0,0,1-1,.71,3.9,3.9,0,0,1-1.47.25,3.83,3.83,0,0,1-1.47-.25,2,2,0,0,1-1-.71,1.81,1.81,0,0,1-.35-1.1,1.71,1.71,0,0,1,.32-1,2,2,0,0,1,.92-.66,1.73,1.73,0,0,1-.74-.61,1.64,1.64,0,0,1-.25-.9,1.69,1.69,0,0,1,.32-1,2,2,0,0,1,.89-.66,3.54,3.54,0,0,1,1.32-.23,3.67,3.67,0,0,1,1.33.23,2.1,2.1,0,0,1,.89.66,1.69,1.69,0,0,1,.32,1,1.61,1.61,0,0,1-.26.9A1.73,1.73,0,0,1,78.6,35.14Zm-1.54-2.6a1.89,1.89,0,0,0-1.13.31,1,1,0,0,0,0,1.64,1.91,1.91,0,0,0,1.14.3,1.93,1.93,0,0,0,1.14-.3,1,1,0,0,0,.41-.82,1,1,0,0,0-.43-.82A1.86,1.86,0,0,0,77.06,32.54Zm0,5.54a2.18,2.18,0,0,0,1.3-.34,1.1,1.1,0,0,0,.49-.94,1.06,1.06,0,0,0-.49-.91,2.67,2.67,0,0,0-2.61,0,1.07,1.07,0,0,0-.47.91,1.11,1.11,0,0,0,.47.94A2.19,2.19,0,0,0,77.06,38.08Zm6-6.27v7H82V32.68H80.46v-.87Zm3.15,3.76A1.46,1.46,0,0,1,85,35a2,2,0,0,1-.45-1.38A2.08,2.08,0,0,1,85,32.28a1.49,1.49,0,0,1,1.18-.53,1.44,1.44,0,0,1,1.17.53,2.36,2.36,0,0,1,0,2.77A1.44,1.44,0,0,1,86.18,35.57Zm4.22-3.76h.77l-4.78,7h-.77ZM86.18,35a.82.82,0,0,0,.72-.35,1.69,1.69,0,0,0,.26-1,1.65,1.65,0,0,0-.26-1,.83.83,0,0,0-.72-.36.86.86,0,0,0-.72.36,1.67,1.67,0,0,0-.26,1,1.65,1.65,0,0,0,.26,1A.86.86,0,0,0,86.18,35Zm4.43,3.87a1.48,1.48,0,0,1-1.18-.52,2.4,2.4,0,0,1,0-2.77,1.58,1.58,0,0,1,2.36,0A2.08,2.08,0,0,1,92.24,37a2,2,0,0,1-.45,1.38A1.45,1.45,0,0,1,90.61,38.87Zm0-.57a.83.83,0,0,0,.71-.36,1.58,1.58,0,0,0,.27-1,1.61,1.61,0,0,0-.27-1,.83.83,0,0,0-.71-.36.84.84,0,0,0-.72.36,1.65,1.65,0,0,0-.26,1,1.69,1.69,0,0,0,.26,1A.83.83,0,0,0,90.61,38.3Z"/><path class="cls-4" d="M25.65,35.27a1.4,1.4,0,0,1-.57-.29,6.22,6.22,0,0,1-.47-.56,2.8,2.8,0,0,0-.32-.41.67.67,0,0,0-.31-.19.59.59,0,0,0-.56.11,1.09,1.09,0,0,0-.37.57l-.61-.16a1.9,1.9,0,0,1,.67-1.08,1.33,1.33,0,0,1,1.59.14,3.54,3.54,0,0,1,.47.56,3.59,3.59,0,0,0,.33.41.61.61,0,0,0,.31.18.59.59,0,0,0,.55-.1,1.15,1.15,0,0,0,.38-.59l.61.16a1.91,1.91,0,0,1-.69,1.1A1.18,1.18,0,0,1,25.65,35.27Z"/><path class="cls-4" d="M25,37.48a1.3,1.3,0,0,1-.57-.3,5.07,5.07,0,0,1-.47-.56,3.48,3.48,0,0,0-.32-.41.64.64,0,0,0-.32-.18.58.58,0,0,0-.55.11,1,1,0,0,0-.37.57l-.61-.16a1.91,1.91,0,0,1,.67-1.09,1.24,1.24,0,0,1,1-.16,1.32,1.32,0,0,1,.56.31,3.62,3.62,0,0,1,.47.56c.13.18.24.32.32.41a.92.92,0,0,0,.32.18.62.62,0,0,0,.55-.1,1.2,1.2,0,0,0,.38-.6l.61.17a2,2,0,0,1-.69,1.1A1.18,1.18,0,0,1,25,37.48Z"/><rect class="cls-5" x="19.84" y="58.81" width="836" height="261"/><path class="cls-6" d="M19.81,59.47V319.53"/><path class="cls-7" d="M96.13,59.47V319.53"/><path class="cls-7" d="M171.51,59.47V319.53"/><path class="cls-7" d="M247.83,59.47V319.53"/><path class="cls-7" d="M324.16,59.47V319.53"/><path class="cls-7" d="M399.54,59.47V319.53"/><path class="cls-7" d="M475.86,59.47V319.53"/><path class="cls-7" d="M551.24,59.47V319.53"/><path class="cls-7" d="M627.57,59.47V319.53"/><path class="cls-7" d="M703.89,59.47V319.53"/><path class="cls-7" d="M779.27,59.47V319.53"/><path class="cls-7" d="M856.54,59.47V319.53"/><path class="cls-6" d="M20.28,320H856.07"/><path class="cls-7" d="M20.28,268.18H856.07"/><path class="cls-7" d="M20.28,216.35H856.07"/><path class="cls-7" d="M20.28,163.59H856.07"/><path class="cls-7" d="M20.28,111.76H856.07"/><path class="cls-7" d="M20.28,59H856.07"/><path class="cls-8" d="M20.28,320H856.07"/><path class="cls-7" d="M19.81,59.47V319.53"/><path class="cls-9" d="M16.09,332.78a4.14,4.14,0,0,1-.54,2.36,1.93,1.93,0,0,1-1.69.77,2,2,0,0,1-1.69-.75,4,4,0,0,1-.56-2.26v-1.2a4,4,0,0,1,.54-2.33,1.94,1.94,0,0,1,1.7-.76,2,2,0,0,1,1.69.73,3.93,3.93,0,0,1,.55,2.27Zm-.9-1.24a3.3,3.3,0,0,0-.32-1.66,1.1,1.1,0,0,0-1-.53,1.09,1.09,0,0,0-1,.52,3.28,3.28,0,0,0-.33,1.61v1.44a3.44,3.44,0,0,0,.33,1.71,1.13,1.13,0,0,0,1,.54,1.1,1.1,0,0,0,1-.51,3.22,3.22,0,0,0,.34-1.63Zm2.48.71L18,328.7h3.64v.84H18.79l-.21,1.94a2.25,2.25,0,0,1,1.19-.31,2,2,0,0,1,1.54.64,2.53,2.53,0,0,1,.57,1.74,2.41,2.41,0,0,1-.6,1.73,2.14,2.14,0,0,1-1.65.63,2.24,2.24,0,0,1-1.54-.52,2.1,2.1,0,0,1-.68-1.45h.86a1.45,1.45,0,0,0,.43.93,1.39,1.39,0,0,0,.93.3,1.21,1.21,0,0,0,1-.43,1.77,1.77,0,0,0,.36-1.18,1.65,1.65,0,0,0-.39-1.15,1.34,1.34,0,0,0-1-.43,1.49,1.49,0,0,0-.93.26l-.24.19Zm5.47,4.17h-.78l3-7.72h.77Zm6.82-.61h-.91v-6l-1.82.67v-.82l2.58-1H30Zm7.3,0H32.6v-.65l2.46-2.73a5.58,5.58,0,0,0,.76-1,1.68,1.68,0,0,0,.21-.8,1.32,1.32,0,0,0-.34-.92,1.22,1.22,0,0,0-.9-.35,1.42,1.42,0,0,0-1,.38,1.47,1.47,0,0,0-.37,1.07h-.9a2.11,2.11,0,0,1,.63-1.59,2.34,2.34,0,0,1,1.69-.6,2.26,2.26,0,0,1,1.57.52,1.76,1.76,0,0,1,.57,1.38A4.07,4.07,0,0,1,35.6,333l-1.91,2.07h3.57Z"/><path class="cls-9" d="M91.09,332.78a4.14,4.14,0,0,1-.54,2.36,1.93,1.93,0,0,1-1.69.77,2,2,0,0,1-1.69-.75,4,4,0,0,1-.56-2.26v-1.2a4,4,0,0,1,.54-2.33,1.94,1.94,0,0,1,1.7-.76,2,2,0,0,1,1.69.73,3.93,3.93,0,0,1,.55,2.27Zm-.9-1.24a3.3,3.3,0,0,0-.32-1.66,1.1,1.1,0,0,0-1-.53,1.09,1.09,0,0,0-1,.52,3.28,3.28,0,0,0-.33,1.61v1.44a3.44,3.44,0,0,0,.33,1.71,1.13,1.13,0,0,0,1,.54,1.1,1.1,0,0,0,1-.51,3.22,3.22,0,0,0,.34-1.63Zm5.61-2.84v.77h-.17a2.39,2.39,0,0,0-1.68.62,2.54,2.54,0,0,0-.72,1.7,1.94,1.94,0,0,1,1.53-.64,1.85,1.85,0,0,1,1.48.65,2.53,2.53,0,0,1,.56,1.69,2.5,2.5,0,0,1-.6,1.76,2.06,2.06,0,0,1-1.61.66,2,2,0,0,1-1.65-.78,3.15,3.15,0,0,1-.64-2v-.35a4.66,4.66,0,0,1,.84-3,3.1,3.1,0,0,1,2.5-1.06Zm-1.19,3.2a1.52,1.52,0,0,0-.86.28,1.47,1.47,0,0,0-.54.7v.33a2.3,2.3,0,0,0,.4,1.42,1.19,1.19,0,0,0,1,.53,1.14,1.14,0,0,0,1-.45,1.81,1.81,0,0,0,.35-1.17,1.88,1.88,0,0,0-.35-1.18A1.12,1.12,0,0,0,94.61,331.9Zm3.53,4.52h-.78l3-7.72h.77Zm6.82-.61h-.91v-6l-1.82.67v-.82l2.58-1H105Zm7.3,0H107.6v-.65l2.46-2.73a5,5,0,0,0,.75-1,1.58,1.58,0,0,0,.22-.8,1.32,1.32,0,0,0-.34-.92,1.22,1.22,0,0,0-.9-.35,1.42,1.42,0,0,0-1.05.38,1.47,1.47,0,0,0-.37,1.07h-.9a2.11,2.11,0,0,1,.63-1.59,2.34,2.34,0,0,1,1.69-.6,2.26,2.26,0,0,1,1.57.52,1.76,1.76,0,0,1,.57,1.38,4.07,4.07,0,0,1-1.33,2.5l-1.91,2.07h3.57Z"/><path class="cls-9" d="M166.59,332.78a4.14,4.14,0,0,1-.54,2.36,1.93,1.93,0,0,1-1.69.77,2,2,0,0,1-1.69-.75,4,4,0,0,1-.56-2.26v-1.2a4,4,0,0,1,.54-2.33,1.94,1.94,0,0,1,1.7-.76,2,2,0,0,1,1.69.73,3.93,3.93,0,0,1,.55,2.27Zm-.9-1.24a3.3,3.3,0,0,0-.32-1.66,1.1,1.1,0,0,0-1-.53,1.08,1.08,0,0,0-1,.52,3.28,3.28,0,0,0-.33,1.61v1.44a3.44,3.44,0,0,0,.33,1.71,1.13,1.13,0,0,0,1,.54,1.1,1.1,0,0,0,1-.51,3.22,3.22,0,0,0,.34-1.63Zm6.65-2.33-2.94,6.6h-1l2.93-6.36h-3.84v-.75h4.8Zm1.3,7.21h-.78l3-7.72h.77Zm6.82-.61h-.91v-6l-1.82.67v-.82l2.59-1h.14Zm7.3,0H183.1v-.65l2.46-2.73a5.58,5.58,0,0,0,.76-1,1.66,1.66,0,0,0,.2-.8,1.31,1.31,0,0,0-.33-.92,1.22,1.22,0,0,0-.9-.35,1.42,1.42,0,0,0-1,.38,1.47,1.47,0,0,0-.37,1.07H183a2.11,2.11,0,0,1,.63-1.59,2.34,2.34,0,0,1,1.69-.6,2.26,2.26,0,0,1,1.57.52,1.76,1.76,0,0,1,.57,1.38,4.07,4.07,0,0,1-1.33,2.5l-1.91,2.07h3.57Z"/><path class="cls-9" d="M241.59,332.78a4.14,4.14,0,0,1-.54,2.36,1.93,1.93,0,0,1-1.69.77,2,2,0,0,1-1.69-.75,4,4,0,0,1-.56-2.26v-1.2a4,4,0,0,1,.54-2.33,1.94,1.94,0,0,1,1.7-.76,2,2,0,0,1,1.69.73,3.93,3.93,0,0,1,.55,2.27Zm-.9-1.24a3.3,3.3,0,0,0-.32-1.66,1.1,1.1,0,0,0-1-.53,1.08,1.08,0,0,0-1,.52,3.28,3.28,0,0,0-.33,1.61v1.44a3.44,3.44,0,0,0,.33,1.71,1.13,1.13,0,0,0,1,.54,1.1,1.1,0,0,0,1-.51,3.22,3.22,0,0,0,.34-1.63Zm6.37-1a1.66,1.66,0,0,1-.28.95,2,2,0,0,1-.76.65,2,2,0,0,1,.88.69,1.76,1.76,0,0,1,.33,1,1.84,1.84,0,0,1-.63,1.47,2.33,2.33,0,0,1-1.63.55,2.38,2.38,0,0,1-1.65-.55,1.85,1.85,0,0,1-.61-1.47,1.82,1.82,0,0,1,.31-1,2,2,0,0,1,.87-.7,1.8,1.8,0,0,1-.74-.65,1.62,1.62,0,0,1-.28-.94,1.86,1.86,0,0,1,.58-1.43,2.47,2.47,0,0,1,3,0A1.83,1.83,0,0,1,247.06,330.56Zm-.74,3.32a1.3,1.3,0,0,0-.38-1,1.31,1.31,0,0,0-1-.37,1.3,1.3,0,0,0-1,.37,1.31,1.31,0,0,0-.37,1,1.26,1.26,0,0,0,.36.95,1.63,1.63,0,0,0,2,0A1.24,1.24,0,0,0,246.32,333.88ZM245,329.35a1.18,1.18,0,0,0-.87.33,1.2,1.2,0,0,0-.32.89,1.12,1.12,0,0,0,1.19,1.21,1.14,1.14,0,0,0,.86-.33,1.32,1.32,0,0,0,0-1.76A1.13,1.13,0,0,0,245,329.35Zm3.67,7.07h-.78l3-7.72h.77Zm6.82-.61h-.91v-6l-1.82.67v-.82l2.59-1h.14Zm7.3,0H258.1v-.65l2.46-2.73a5.58,5.58,0,0,0,.76-1,1.79,1.79,0,0,0,.2-.8,1.31,1.31,0,0,0-.33-.92,1.22,1.22,0,0,0-.9-.35,1.42,1.42,0,0,0-1.05.38,1.47,1.47,0,0,0-.37,1.07H258a2.11,2.11,0,0,1,.63-1.59,2.34,2.34,0,0,1,1.69-.6,2.26,2.26,0,0,1,1.57.52,1.76,1.76,0,0,1,.57,1.38,4.07,4.07,0,0,1-1.33,2.5l-1.91,2.07h3.57Z"/><path class="cls-9" d="M317.09,332.78a4.14,4.14,0,0,1-.54,2.36,1.93,1.93,0,0,1-1.69.77,2,2,0,0,1-1.69-.75,4,4,0,0,1-.56-2.26v-1.2a4,4,0,0,1,.54-2.33,1.94,1.94,0,0,1,1.7-.76,2,2,0,0,1,1.69.73,3.93,3.93,0,0,1,.55,2.27Zm-.9-1.24a3.3,3.3,0,0,0-.32-1.66,1.1,1.1,0,0,0-1-.53,1.09,1.09,0,0,0-1,.52,3.28,3.28,0,0,0-.33,1.61v1.44a3.44,3.44,0,0,0,.33,1.71,1.13,1.13,0,0,0,1,.54,1.1,1.1,0,0,0,1-.51,3.22,3.22,0,0,0,.34-1.63Zm5.52,1.15a2.26,2.26,0,0,1-.68.54,1.77,1.77,0,0,1-.86.21,1.87,1.87,0,0,1-1.77-1.16,2.85,2.85,0,0,1-.25-1.21,3,3,0,0,1,.27-1.29,2,2,0,0,1,.77-.87,2.2,2.2,0,0,1,1.16-.3,2,2,0,0,1,1.66.79,3.38,3.38,0,0,1,.61,2.14v.27a4.59,4.59,0,0,1-.82,3,3.15,3.15,0,0,1-2.47,1h-.18v-.76h.19a2.51,2.51,0,0,0,1.72-.59A2.47,2.47,0,0,0,321.71,332.69Zm-1.39,0a1.39,1.39,0,0,0,.84-.28,1.7,1.7,0,0,0,.56-.69v-.36a2.51,2.51,0,0,0-.39-1.45,1.13,1.13,0,0,0-1-.55,1.15,1.15,0,0,0-1,.46A1.87,1.87,0,0,0,319,331a2,2,0,0,0,.34,1.2A1.13,1.13,0,0,0,320.32,332.69Zm3.82,3.73h-.78l3-7.72h.77Zm6.82-.61h-.91v-6l-1.82.67v-.82l2.59-1H331Zm7.3,0H333.6v-.65l2.46-2.73a5.58,5.58,0,0,0,.76-1,1.79,1.79,0,0,0,.2-.8,1.31,1.31,0,0,0-.33-.92,1.22,1.22,0,0,0-.9-.35,1.42,1.42,0,0,0-1.05.38,1.47,1.47,0,0,0-.37,1.07h-.9a2.11,2.11,0,0,1,.63-1.59,2.34,2.34,0,0,1,1.69-.6,2.26,2.26,0,0,1,1.57.52,1.76,1.76,0,0,1,.57,1.38,4.07,4.07,0,0,1-1.33,2.5l-1.91,2.07h3.57Z"/><path class="cls-9" d="M393.61,335.81h-.91v-6l-1.82.67v-.82l2.58-1h.15Zm7.1-3a4.14,4.14,0,0,1-.54,2.36,2.26,2.26,0,0,1-3.38,0,3.89,3.89,0,0,1-.57-2.26v-1.2a4,4,0,0,1,.54-2.33,2.3,2.3,0,0,1,3.39,0,3.92,3.92,0,0,1,.56,2.27Zm-.9-1.24a3.18,3.18,0,0,0-.33-1.66,1.24,1.24,0,0,0-2,0,3.19,3.19,0,0,0-.32,1.61v1.44a3.44,3.44,0,0,0,.33,1.71,1.11,1.11,0,0,0,1,.54,1.08,1.08,0,0,0,1-.51,3.21,3.21,0,0,0,.35-1.63Zm2.33,4.88h-.78l3-7.72h.77Zm6.82-.61h-.91v-6l-1.82.67v-.82l2.59-1H409Zm7.3,0H411.6v-.65l2.46-2.73a5.58,5.58,0,0,0,.76-1,1.79,1.79,0,0,0,.2-.8,1.31,1.31,0,0,0-.33-.92,1.22,1.22,0,0,0-.9-.35,1.42,1.42,0,0,0-1.05.38,1.47,1.47,0,0,0-.37,1.07h-.9a2.11,2.11,0,0,1,.63-1.59,2.34,2.34,0,0,1,1.69-.6,2.26,2.26,0,0,1,1.57.52,1.76,1.76,0,0,1,.57,1.38,4.07,4.07,0,0,1-1.33,2.5l-1.91,2.07h3.57Z"/><path class="cls-9" d="M468.61,335.81h-.91v-6l-1.82.67v-.82l2.58-1h.15Zm5.61,0h-.91v-6l-1.82.67v-.82l2.59-1h.14Zm2.92.61h-.78l3-7.72h.77Zm6.82-.61h-.91v-6l-1.82.67v-.82l2.59-1H484Zm7.3,0H486.6v-.65l2.46-2.73a5.58,5.58,0,0,0,.76-1,1.79,1.79,0,0,0,.2-.8,1.31,1.31,0,0,0-.33-.92,1.22,1.22,0,0,0-.9-.35,1.42,1.42,0,0,0-1.05.38,1.47,1.47,0,0,0-.37,1.07h-.9a2.11,2.11,0,0,1,.63-1.59,2.34,2.34,0,0,1,1.69-.6,2.26,2.26,0,0,1,1.57.52,1.76,1.76,0,0,1,.57,1.38,4.07,4.07,0,0,1-1.33,2.5l-1.91,2.07h3.57Z"/><path class="cls-9" d="M544.6,335.81h-.9v-6l-1.82.67v-.82l2.58-1h.14Zm7.31,0h-4.66v-.65l2.46-2.73a5,5,0,0,0,.75-1,1.68,1.68,0,0,0,.21-.8,1.31,1.31,0,0,0-.33-.92,1.22,1.22,0,0,0-.9-.35,1.42,1.42,0,0,0-1.05.38,1.47,1.47,0,0,0-.37,1.07h-.91a2.11,2.11,0,0,1,.63-1.59,2.38,2.38,0,0,1,1.7-.6,2.26,2.26,0,0,1,1.57.52,1.76,1.76,0,0,1,.57,1.38,4,4,0,0,1-1.34,2.5l-1.9,2.07h3.57Zm1.23.61h-.78l3-7.72h.77Zm6.82-.61h-.91v-6l-1.82.67v-.82l2.59-1H560Zm7.3,0H562.6v-.65l2.46-2.73a5.58,5.58,0,0,0,.76-1,1.68,1.68,0,0,0,.21-.8,1.32,1.32,0,0,0-.34-.92,1.22,1.22,0,0,0-.9-.35,1.42,1.42,0,0,0-1,.38,1.47,1.47,0,0,0-.37,1.07h-.9a2.11,2.11,0,0,1,.63-1.59,2.34,2.34,0,0,1,1.69-.6,2.26,2.26,0,0,1,1.57.52,1.76,1.76,0,0,1,.57,1.38,4.07,4.07,0,0,1-1.33,2.5l-1.91,2.07h3.57Z"/><path class="cls-9" d="M620.6,335.81h-.9v-6l-1.82.67v-.82l2.58-1h.14Zm4-4h.67a1.5,1.5,0,0,0,1-.34,1.13,1.13,0,0,0,.36-.88,1.1,1.1,0,0,0-1.24-1.25,1.29,1.29,0,0,0-.94.34,1.15,1.15,0,0,0-.34.88h-.91a1.81,1.81,0,0,1,.62-1.4,2.55,2.55,0,0,1,3.15,0,1.92,1.92,0,0,1,.57,1.48,1.57,1.57,0,0,1-.3.9,1.84,1.84,0,0,1-.82.65,1.66,1.66,0,0,1,1.23,1.66,1.94,1.94,0,0,1-.63,1.52,2.36,2.36,0,0,1-1.62.56,2.44,2.44,0,0,1-1.64-.54,1.82,1.82,0,0,1-.62-1.43H624a1.19,1.19,0,0,0,.36.9,1.44,1.44,0,0,0,1,.33,1.36,1.36,0,0,0,1-.34,1.31,1.31,0,0,0,.34-1,1.17,1.17,0,0,0-.38-1,1.63,1.63,0,0,0-1.1-.34h-.67Zm4.57,4.6h-.78l3-7.72h.77Zm6.82-.61h-.91v-6l-1.82.67v-.82l2.59-1H636Zm7.3,0H638.6v-.65l2.46-2.73a5.58,5.58,0,0,0,.76-1,1.68,1.68,0,0,0,.21-.8,1.32,1.32,0,0,0-.34-.92,1.22,1.22,0,0,0-.9-.35,1.42,1.42,0,0,0-1,.38,1.47,1.47,0,0,0-.37,1.07h-.9a2.11,2.11,0,0,1,.63-1.59,2.34,2.34,0,0,1,1.69-.6,2.26,2.26,0,0,1,1.57.52,1.76,1.76,0,0,1,.57,1.38,4.07,4.07,0,0,1-1.33,2.5l-1.91,2.07h3.57Z"/><path class="cls-9" d="M697.1,335.81h-.9v-6l-1.82.67v-.82l2.58-1h.14Zm6.47-2.39h1v.74h-1v1.65h-.91v-1.65h-3.24v-.53l3.18-4.93h1Zm-3.13,0h2.22v-3.48l-.11.19Zm5.2,3h-.78l3-7.72h.77Zm6.82-.61h-.91v-6l-1.82.67v-.82l2.59-1h.14Zm7.3,0H715.1v-.65l2.46-2.73a5.58,5.58,0,0,0,.76-1,1.68,1.68,0,0,0,.21-.8,1.32,1.32,0,0,0-.34-.92,1.22,1.22,0,0,0-.9-.35,1.42,1.42,0,0,0-1,.38,1.47,1.47,0,0,0-.37,1.07H715a2.11,2.11,0,0,1,.63-1.59,2.34,2.34,0,0,1,1.69-.6,2.26,2.26,0,0,1,1.57.52,1.76,1.76,0,0,1,.57,1.38,4.07,4.07,0,0,1-1.33,2.5l-1.91,2.07h3.57Z"/><path class="cls-9" d="M772.1,335.81h-.9v-6l-1.82.67v-.82l2.58-1h.14Zm3.07-3.56.36-3.55h3.64v.84h-2.88l-.21,1.94a2.25,2.25,0,0,1,1.19-.31,2,2,0,0,1,1.54.64,2.53,2.53,0,0,1,.57,1.74,2.41,2.41,0,0,1-.6,1.73,2.14,2.14,0,0,1-1.65.63,2.24,2.24,0,0,1-1.54-.52,2.1,2.1,0,0,1-.68-1.45h.86a1.45,1.45,0,0,0,.43.93,1.39,1.39,0,0,0,.93.3,1.18,1.18,0,0,0,1-.43,1.72,1.72,0,0,0,.37-1.18,1.65,1.65,0,0,0-.39-1.15,1.36,1.36,0,0,0-1-.43,1.49,1.49,0,0,0-.93.26l-.24.19Zm5.47,4.17h-.78l3-7.72h.77Zm6.82-.61h-.91v-6l-1.82.67v-.82l2.59-1h.14Zm7.3,0H790.1v-.65l2.46-2.73a5.58,5.58,0,0,0,.76-1,1.68,1.68,0,0,0,.21-.8,1.32,1.32,0,0,0-.34-.92,1.22,1.22,0,0,0-.9-.35,1.42,1.42,0,0,0-1,.38,1.47,1.47,0,0,0-.37,1.07H790a2.11,2.11,0,0,1,.63-1.59,2.34,2.34,0,0,1,1.69-.6,2.26,2.26,0,0,1,1.57.52,1.76,1.76,0,0,1,.57,1.38,4.07,4.07,0,0,1-1.33,2.5l-1.91,2.07h3.57Z"/><path class="cls-9" d="M839.94,336.07H839v-6l-1.82.67v-.82l2.58-1h.15Zm6.19-7.11v.76H846a2.35,2.35,0,0,0-1.68.63,2.54,2.54,0,0,0-.72,1.7,1.92,1.92,0,0,1,1.53-.64,1.85,1.85,0,0,1,1.48.65,2.86,2.86,0,0,1,0,3.45,2.21,2.21,0,0,1-3.26-.12,3.15,3.15,0,0,1-.63-2V333a4.66,4.66,0,0,1,.83-3A3.07,3.07,0,0,1,846,329Zm-1.19,3.2a1.4,1.4,0,0,0-.85.28,1.5,1.5,0,0,0-.55.7v.33a2.33,2.33,0,0,0,.4,1.41,1.18,1.18,0,0,0,1,.54,1.14,1.14,0,0,0,1-.45,1.82,1.82,0,0,0,.35-1.18,1.84,1.84,0,0,0-.35-1.18A1.14,1.14,0,0,0,844.94,332.16Zm3.53,4.52h-.77l3-7.72h.77Zm6.82-.61h-.91v-6l-1.82.67v-.82l2.59-1h.14Zm-6,12h-4.66v-.65l2.46-2.73a6,6,0,0,0,.76-1,1.68,1.68,0,0,0,.21-.8,1.3,1.3,0,0,0-.34-.92,1.18,1.18,0,0,0-.9-.36,1.39,1.39,0,0,0-1.05.39,1.47,1.47,0,0,0-.37,1.07h-.9a2.09,2.09,0,0,1,.63-1.59,2.35,2.35,0,0,1,1.69-.61,2.26,2.26,0,0,1,1.57.53,1.76,1.76,0,0,1,.57,1.38,4.07,4.07,0,0,1-1.33,2.5l-1.91,2.06h3.57Z"/><path class="cls-9" d="M10.29,319.85a4.12,4.12,0,0,1-.54,2.35,1.94,1.94,0,0,1-1.7.78,1.94,1.94,0,0,1-1.68-.76A3.84,3.84,0,0,1,5.8,320v-1.21a4.07,4.07,0,0,1,.54-2.33,1.94,1.94,0,0,1,1.7-.76,2,2,0,0,1,1.69.74,3.88,3.88,0,0,1,.56,2.26Zm-.91-1.24a3.26,3.26,0,0,0-.32-1.67,1.1,1.1,0,0,0-1-.53,1.1,1.1,0,0,0-1,.53,3.24,3.24,0,0,0-.33,1.6V320a3.28,3.28,0,0,0,.34,1.7,1.09,1.09,0,0,0,1,.55,1.07,1.07,0,0,0,1-.52,3.19,3.19,0,0,0,.34-1.63Z"/><path class="cls-9" d="M4.87,271.05H.21v-.65l2.47-2.73a5.93,5.93,0,0,0,.75-1,1.68,1.68,0,0,0,.21-.8,1.28,1.28,0,0,0-.34-.92,1.19,1.19,0,0,0-.9-.35,1.42,1.42,0,0,0-1,.38A1.51,1.51,0,0,0,1,266H.08a2.11,2.11,0,0,1,.63-1.59,2.36,2.36,0,0,1,1.69-.6,2.24,2.24,0,0,1,1.57.52,1.77,1.77,0,0,1,.58,1.38,4.09,4.09,0,0,1-1.34,2.5L1.3,270.32H4.87Zm1.38-3.56.36-3.55h3.64v.84H7.37l-.21,1.94a2.24,2.24,0,0,1,1.18-.31,2,2,0,0,1,1.55.65,2.49,2.49,0,0,1,.57,1.73,2.41,2.41,0,0,1-.6,1.73,2.14,2.14,0,0,1-1.65.63,2.24,2.24,0,0,1-1.54-.52A2.1,2.1,0,0,1,6,269.18h.86a1.45,1.45,0,0,0,.43.93,1.37,1.37,0,0,0,.93.3,1.18,1.18,0,0,0,1-.43,1.72,1.72,0,0,0,.37-1.18,1.61,1.61,0,0,0-.39-1.14,1.34,1.34,0,0,0-1-.44,1.48,1.48,0,0,0-.92.26l-.24.19Z"/><path class="cls-9" d="M.63,215.67,1,212.12H4.63V213H1.76l-.22,1.94a2.36,2.36,0,0,1,1.19-.3,1.94,1.94,0,0,1,1.54.64A2.51,2.51,0,0,1,4.84,217a2.43,2.43,0,0,1-.59,1.74,2.18,2.18,0,0,1-1.66.63,2.25,2.25,0,0,1-1.54-.53,2.07,2.07,0,0,1-.67-1.44h.85a1.43,1.43,0,0,0,.44.92,1.31,1.31,0,0,0,.92.31,1.21,1.21,0,0,0,1-.43A1.8,1.8,0,0,0,3.94,217a1.64,1.64,0,0,0-.39-1.14,1.31,1.31,0,0,0-1-.43,1.53,1.53,0,0,0-.93.25l-.24.2Zm9.66.53a4.16,4.16,0,0,1-.54,2.36,2,2,0,0,1-1.7.77,1.91,1.91,0,0,1-1.68-.76,3.84,3.84,0,0,1-.57-2.25v-1.21a4.07,4.07,0,0,1,.54-2.33A2,2,0,0,1,8,212a2,2,0,0,1,1.69.74,3.9,3.9,0,0,1,.56,2.27ZM9.38,215a3.26,3.26,0,0,0-.32-1.67,1.1,1.1,0,0,0-1-.53,1.1,1.1,0,0,0-1,.53,3.27,3.27,0,0,0-.33,1.6v1.45A3.28,3.28,0,0,0,7,218a1.09,1.09,0,0,0,1,.55,1.07,1.07,0,0,0,1-.52,3.19,3.19,0,0,0,.34-1.63Z"/><path class="cls-9" d="M4.8,160.8l-2.94,6.6H.91L3.85,161H0v-.75H4.8Zm1.45,3,.36-3.55h3.64v.84H7.37l-.21,1.94a2.24,2.24,0,0,1,1.18-.31,2,2,0,0,1,1.55.64,2.53,2.53,0,0,1,.57,1.74,2.41,2.41,0,0,1-.6,1.73,2.14,2.14,0,0,1-1.65.63A2.24,2.24,0,0,1,6.67,167,2.1,2.1,0,0,1,6,165.53h.86a1.45,1.45,0,0,0,.43.93,1.37,1.37,0,0,0,.93.3,1.2,1.2,0,0,0,1-.42,1.77,1.77,0,0,0,.37-1.19A1.61,1.61,0,0,0,9.17,164a1.34,1.34,0,0,0-1-.44,1.48,1.48,0,0,0-.92.26L7,164Z"/><path class="cls-9" d="M3.18,115.58h-.9v-6l-1.83.67v-.82l2.59-1h.14Zm7.11-3a4.16,4.16,0,0,1-.54,2.36,2,2,0,0,1-1.7.77,1.93,1.93,0,0,1-1.68-.75,3.89,3.89,0,0,1-.57-2.26v-1.21a4.07,4.07,0,0,1,.54-2.33,2,2,0,0,1,1.7-.76,2,2,0,0,1,1.69.74,3.9,3.9,0,0,1,.56,2.27Zm-.91-1.24a3.26,3.26,0,0,0-.32-1.67,1.09,1.09,0,0,0-1-.52,1.09,1.09,0,0,0-1,.52,3.27,3.27,0,0,0-.33,1.6v1.45a3.26,3.26,0,0,0,.34,1.7,1.09,1.09,0,0,0,1,.55,1.07,1.07,0,0,0,1-.52,3.19,3.19,0,0,0,.34-1.63Zm.91,13.24a4.16,4.16,0,0,1-.54,2.36,2,2,0,0,1-1.7.77,1.93,1.93,0,0,1-1.68-.75,3.89,3.89,0,0,1-.57-2.26v-1.21a4.07,4.07,0,0,1,.54-2.33,2,2,0,0,1,1.7-.76,2,2,0,0,1,1.69.74,3.9,3.9,0,0,1,.56,2.27Zm-.91-1.24a3.26,3.26,0,0,0-.32-1.67,1.09,1.09,0,0,0-1-.52,1.09,1.09,0,0,0-1,.52,3.27,3.27,0,0,0-.33,1.6v1.45a3.26,3.26,0,0,0,.34,1.7,1.09,1.09,0,0,0,1,.55,1.07,1.07,0,0,0,1-.52,3.19,3.19,0,0,0,.34-1.63Z"/><path class="cls-9" d="M3.18,62.81h-.9v-6l-1.83.67v-.82l2.59-1h.14Zm7.31,0H5.83v-.65l2.46-2.73a5,5,0,0,0,.75-1,1.68,1.68,0,0,0,.21-.8,1.31,1.31,0,0,0-.33-.92,1.22,1.22,0,0,0-.9-.35,1.42,1.42,0,0,0-1,.38A1.47,1.47,0,0,0,6.6,57.8H5.69a2.11,2.11,0,0,1,.63-1.59,2.38,2.38,0,0,1,1.7-.6,2.21,2.21,0,0,1,1.56.52,1.73,1.73,0,0,1,.58,1.38A4,4,0,0,1,8.82,60l-1.9,2.07h3.57ZM6.25,71.25l.36-3.55h3.64v.84H7.37l-.21,1.94a2.24,2.24,0,0,1,1.18-.31,2,2,0,0,1,1.55.64,2.53,2.53,0,0,1,.57,1.74,2.41,2.41,0,0,1-.6,1.73,2.14,2.14,0,0,1-1.65.63,2.24,2.24,0,0,1-1.54-.52A2.1,2.1,0,0,1,6,72.94h.86a1.45,1.45,0,0,0,.43.93,1.37,1.37,0,0,0,.93.3,1.18,1.18,0,0,0,1-.43,1.72,1.72,0,0,0,.37-1.18,1.65,1.65,0,0,0-.39-1.15,1.33,1.33,0,0,0-1-.43,1.48,1.48,0,0,0-.92.26L7,71.43Z"/><path class="cls-10" d="M20.28,246.71s45.59-52,76-52,45.59,0,76,18.72,45.59,81.15,76,81.15,45.59,0,76-29.13,45.59-116.51,76-116.51,45.59,70.74,76,70.74,45.59,0,76-14.57,45.59-79.06,76-79.06,45.59,47.44,76,70.74,45.59,41.61,76,45.77,76,4.16,76,4.16"/><path class="cls-11" d="M20.28,250.75a3.79,3.79,0,1,1,2.66-1.11,3.74,3.74,0,0,1-2.66,1.11Z"/><path class="cls-11" d="M95.66,198.92a3.77,3.77,0,0,1-2.67-1.1,3.78,3.78,0,0,1,2.67-6.44,3.79,3.79,0,0,1,3.77,3.77,3.76,3.76,0,0,1-3.77,3.77Z"/><path class="cls-11" d="M172,216.82a3.77,3.77,0,0,1-3.77-3.76,3.78,3.78,0,0,1,1.11-2.67,3.73,3.73,0,0,1,2.66-1.1,3.77,3.77,0,1,1,0,7.53Z"/><path class="cls-11" d="M247.36,298.8a3.76,3.76,0,1,1,2.67-1.1,3.79,3.79,0,0,1-2.66,1.1Z"/><path class="cls-11" d="M323.69,269.59a3.76,3.76,0,0,1-3.77-3.77,3.77,3.77,0,1,1,3.77,3.77Z"/><path class="cls-11" d="M400,152.75a3.77,3.77,0,1,1,3.77-3.77,3.76,3.76,0,0,1-3.77,3.77Z"/><path class="cls-11" d="M475.39,223.42a3.77,3.77,0,1,1,2.67-1.11,3.77,3.77,0,0,1-2.67,1.11Z"/><path class="cls-11" d="M551.72,209.29a3.78,3.78,0,0,1-2.67-1.11,3.73,3.73,0,0,1-1.1-2.66,3.76,3.76,0,0,1,3.76-3.77,3.81,3.81,0,0,1,2.67,1.1,3.78,3.78,0,0,1-2.66,6.44Z"/><path class="cls-11" d="M628,130.14a3.77,3.77,0,1,1,2.67-1.11,3.78,3.78,0,0,1-2.67,1.11Z"/><path class="cls-11" d="M703.42,200.81a3.79,3.79,0,0,1-3.77-3.77,3.76,3.76,0,0,1,3.77-3.77,3.73,3.73,0,0,1,2.66,1.1,3.77,3.77,0,0,1-2.66,6.44Z"/><path class="cls-11" d="M779.74,246a3.79,3.79,0,0,1-3.77-3.77,3.77,3.77,0,1,1,3.78,3.77Z"/><path class="cls-11" d="M856.07,250.75a3.79,3.79,0,1,1,2.66-1.11,3.74,3.74,0,0,1-2.66,1.11Z"/><path class="cls-12" d="M20.28,250.75a3.79,3.79,0,1,1,2.66-1.11,3.74,3.74,0,0,1-2.66,1.11Z"/><path class="cls-12" d="M95.66,269.59a3.77,3.77,0,0,1,0-7.54,3.79,3.79,0,0,1,3.77,3.77,3.76,3.76,0,0,1-3.77,3.77Z"/><path class="cls-12" d="M172,159.35a3.79,3.79,0,0,1-3.77-3.77,3.77,3.77,0,1,1,3.78,3.77Z"/><path class="cls-12" d="M247.36,285.61a3.77,3.77,0,0,1-3.77-3.77,3.79,3.79,0,0,1,3.77-3.77,3.76,3.76,0,0,1,3.77,3.77,3.77,3.77,0,0,1-3.76,3.77Z"/><path class="cls-12" d="M323.69,111.29a3.76,3.76,0,0,1-3.77-3.77,3.77,3.77,0,0,1,3.76-3.77,3.77,3.77,0,0,1,2.67,6.44,3.77,3.77,0,0,1-2.66,1.1Z"/><path class="cls-12" d="M400,133.91a3.79,3.79,0,0,1-3.77-3.77,3.76,3.76,0,0,1,3.77-3.77,3.77,3.77,0,0,1,3.77,3.76,3.77,3.77,0,0,1-3.77,3.78Z"/><path class="cls-12" d="M475.39,240.38a3.76,3.76,0,1,1,3.77-3.77,3.76,3.76,0,0,1-3.77,3.77Z"/><path class="cls-12" d="M551.72,231.9a3.81,3.81,0,0,1-2.67-1.1,3.77,3.77,0,0,1-1.1-2.67,3.77,3.77,0,0,1,3.76-3.77,3.81,3.81,0,0,1,2.67,1.1,3.77,3.77,0,0,1,1.1,2.67,3.77,3.77,0,0,1-3.76,3.77Z"/><path class="cls-12" d="M628,302.57a3.76,3.76,0,1,1,2.67-1.1,3.81,3.81,0,0,1-2.67,1.1Z"/><path class="cls-12" d="M703.42,263a3.79,3.79,0,0,1-3.77-3.77,3.76,3.76,0,0,1,3.77-3.77,3.77,3.77,0,0,1,3.77,3.76,3.77,3.77,0,0,1-3.77,3.78Z"/><path class="cls-12" d="M779.74,246a3.79,3.79,0,0,1-3.77-3.77,3.77,3.77,0,1,1,3.78,3.77Z"/><path class="cls-12" d="M856.07,250.75a3.79,3.79,0,1,1,2.66-1.11,3.74,3.74,0,0,1-2.66,1.11Z"/><path class="cls-13" d="M20.28,246.71s45.59,18.73,76,18.73,45.59-110.27,76-110.27,45.59,126.91,76,126.91,45.59-174.76,76-174.76,45.59,0,76,22.88,45.59,106.11,76,106.11,45.59-8.32,76-8.32,45.59,70.74,76,70.74,45.59-28.3,76-39.53,45.59-16.65,76-16.65,76,4.16,76,4.16"/><path class="cls-14" d="M692.62,6.81V2.22l-2.27,3.83h-.42l-2.27-3.8V6.81h-.87V.51h.74l2.63,4.43L692.74.51h.74v6.3ZM697.08,2a2.16,2.16,0,0,1,1.51.48,1.9,1.9,0,0,1,.53,1.45V6.81h-.82V6.18a1.33,1.33,0,0,1-.62.52,2.43,2.43,0,0,1-.94.17,2,2,0,0,1-1.29-.39,1.25,1.25,0,0,1-.48-1,1.24,1.24,0,0,1,.46-1,2.24,2.24,0,0,1,1.46-.39h1.37V3.9a1.09,1.09,0,0,0-.33-.86,1.34,1.34,0,0,0-.95-.3,2.39,2.39,0,0,0-.83.15,1.93,1.93,0,0,0-.68.37l-.36-.65a2.44,2.44,0,0,1,.88-.45A3.5,3.5,0,0,1,697.08,2Zm-.2,4.2a1.56,1.56,0,0,0,.85-.22,1.31,1.31,0,0,0,.53-.63V4.69h-1.34c-.73,0-1.09.25-1.09.74a.64.64,0,0,0,.28.56A1.24,1.24,0,0,0,696.88,6.2Zm.81-6h1.1l-1.51,1.17h-.81Zm6.16,6.63L702.47,5l-1.39,1.82h-1L702,4.37,700.21,2h1l1.31,1.72L703.79,2h.94l-1.8,2.33,1.9,2.44Zm2-4.77h.87V6.81h-.87Zm.44-.91a.61.61,0,0,1-.43-.17.55.55,0,0,1-.16-.39.58.58,0,0,1,.16-.4A.61.61,0,0,1,706.3,0a.54.54,0,0,1,.41.16.48.48,0,0,1,.17.39.53.53,0,0,1-.17.41A.55.55,0,0,1,706.3,1.13Zm8.14.87a1.91,1.91,0,0,1,1.42.52,2.09,2.09,0,0,1,.53,1.55V6.81h-.86V4.17a1.49,1.49,0,0,0-.33-1,1.17,1.17,0,0,0-.91-.35,1.34,1.34,0,0,0-1,.42,1.62,1.62,0,0,0-.39,1.17V6.81H712V4.17a1.49,1.49,0,0,0-.33-1,1.17,1.17,0,0,0-.91-.35,1.36,1.36,0,0,0-1,.42,1.62,1.62,0,0,0-.39,1.17V6.81h-.86V2h.83v.71A1.6,1.6,0,0,1,710,2.2a2.12,2.12,0,0,1,1-.2,2.07,2.07,0,0,1,1,.22,1.58,1.58,0,0,1,.67.66,1.83,1.83,0,0,1,.75-.65A2.53,2.53,0,0,1,714.44,2Zm5.7,4.87a2.59,2.59,0,0,1-1.28-.32,2.3,2.3,0,0,1-.89-.86,2.51,2.51,0,0,1-.32-1.26A2.45,2.45,0,0,1,718,3.18a2.26,2.26,0,0,1,.89-.87,2.78,2.78,0,0,1,2.55,0,2.3,2.3,0,0,1,.88.87,2.35,2.35,0,0,1,.32,1.25,2.41,2.41,0,0,1-.32,1.26,2.34,2.34,0,0,1-.88.86A2.58,2.58,0,0,1,720.14,6.87Zm0-.76A1.61,1.61,0,0,0,721,5.9a1.47,1.47,0,0,0,.57-.59,1.82,1.82,0,0,0,.21-.88,1.75,1.75,0,0,0-.21-.87A1.44,1.44,0,0,0,721,3a1.61,1.61,0,0,0-.82-.21,1.65,1.65,0,0,0-.83.21,1.59,1.59,0,0,0-.58.6,1.86,1.86,0,0,0-.2.87,1.93,1.93,0,0,0,.2.88,1.56,1.56,0,0,0,1.41.8Zm10.58-1.65c0,.06,0,.15,0,.26h-3.87a1.48,1.48,0,0,0,.55,1,1.85,1.85,0,0,0,1.18.38,1.75,1.75,0,0,0,1.37-.57l.48.55a2,2,0,0,1-.81.58,2.83,2.83,0,0,1-1.07.2,2.79,2.79,0,0,1-1.34-.31,2.25,2.25,0,0,1-.91-.87A2.51,2.51,0,0,1,726,4.43a2.6,2.6,0,0,1,.31-1.25,2.32,2.32,0,0,1,.86-.87A2.39,2.39,0,0,1,728.36,2a2.32,2.32,0,0,1,1.21.31,2.2,2.2,0,0,1,.84.87A2.66,2.66,0,0,1,730.72,4.46Zm-2.36-1.73a1.49,1.49,0,0,0-1.05.38,1.56,1.56,0,0,0-.48,1h3.06a1.55,1.55,0,0,0-.5-1A1.47,1.47,0,0,0,728.36,2.73ZM738,2a1.93,1.93,0,0,1,1.43.52,2.09,2.09,0,0,1,.53,1.55V6.81h-.87V4.17a1.53,1.53,0,0,0-.32-1,1.18,1.18,0,0,0-.91-.35,1.36,1.36,0,0,0-1.05.42,1.66,1.66,0,0,0-.38,1.17V6.81h-.87V4.17a1.48,1.48,0,0,0-.32-1,1.17,1.17,0,0,0-.91-.35,1.34,1.34,0,0,0-1,.42,1.62,1.62,0,0,0-.39,1.17V6.81H732V2h.82v.71a1.69,1.69,0,0,1,.69-.55,2.37,2.37,0,0,1,2,0,1.58,1.58,0,0,1,.67.66,1.87,1.87,0,0,1,.74-.65A2.59,2.59,0,0,1,738,2Zm10.18,4v.78h-4.52V6.2l2.56-2.47a3.14,3.14,0,0,0,.63-.78,1.46,1.46,0,0,0,.16-.66.9.9,0,0,0-.35-.77,1.5,1.5,0,0,0-1-.28,2,2,0,0,0-1.61.69l-.61-.53a2.46,2.46,0,0,1,1-.71,3.59,3.59,0,0,1,1.34-.25,2.42,2.42,0,0,1,1.58.48,1.55,1.55,0,0,1,.58,1.28,2.23,2.23,0,0,1-.21.95,4.1,4.1,0,0,1-.82,1L744.92,6Zm6.15-.76h-1.2V6.81h-.87V5.27h-3.5V4.64L752,.51h1l-3.09,4h2.43V3.12h.84V4.49h1.2ZM757.86,2a1.91,1.91,0,0,1,1.44.53,2,2,0,0,1,.54,1.54V6.81H759V4.17a1.44,1.44,0,0,0-.34-1,1.26,1.26,0,0,0-.95-.35,1.47,1.47,0,0,0-1.11.42,1.58,1.58,0,0,0-.4,1.17V6.81h-.87V.13h.87V2.72a1.7,1.7,0,0,1,.7-.53A2.38,2.38,0,0,1,757.86,2Z"/><path class="cls-14" d="M784.25.51l-2.76,6.3h-.89L777.83.51h1l2.27,5.18L783.35.51Zm2.45,6.36a2.61,2.61,0,0,1-1.28-.32,2.45,2.45,0,0,1-.89-.86,2.5,2.5,0,0,1-.31-1.26,2.44,2.44,0,0,1,.31-1.25,2.4,2.4,0,0,1,.89-.87A2.61,2.61,0,0,1,786.7,2a2.52,2.52,0,0,1,1.27.31,2.23,2.23,0,0,1,.88.87,2.36,2.36,0,0,1,.33,1.25,2.42,2.42,0,0,1-.33,1.26,2.27,2.27,0,0,1-.88.86A2.52,2.52,0,0,1,786.7,6.87Zm0-.76a1.59,1.59,0,0,0,.82-.21,1.5,1.5,0,0,0,.58-.59,1.81,1.81,0,0,0,.2-.88,1.75,1.75,0,0,0-.2-.87,1.46,1.46,0,0,0-.58-.6,1.59,1.59,0,0,0-.82-.21,1.61,1.61,0,0,0-.82.21,1.52,1.52,0,0,0-.58.6,1.75,1.75,0,0,0-.21.87,1.82,1.82,0,0,0,.21.88,1.56,1.56,0,0,0,.58.59A1.61,1.61,0,0,0,786.7,6.11Zm3.76-6h.87V6.81h-.87ZM799.61,6v.78h-4.52V6.2l2.56-2.47a2.92,2.92,0,0,0,.63-.78,1.47,1.47,0,0,0,.17-.66.91.91,0,0,0-.36-.77,1.48,1.48,0,0,0-1-.28,2,2,0,0,0-1.61.69l-.61-.53a2.46,2.46,0,0,1,1-.71,3.63,3.63,0,0,1,1.34-.25,2.42,2.42,0,0,1,1.58.48,1.55,1.55,0,0,1,.58,1.28,2.23,2.23,0,0,1-.21.95,4.1,4.1,0,0,1-.82,1L796.38,6Zm6.15-.76h-1.2V6.81h-.87V5.27h-3.5V4.64L803.41.51h1l-3.09,4h2.43V3.12h.84V4.49h1.2ZM809.32,2a1.91,1.91,0,0,1,1.44.53,2,2,0,0,1,.54,1.54V6.81h-.86V4.17a1.44,1.44,0,0,0-.34-1,1.25,1.25,0,0,0-1-.35,1.47,1.47,0,0,0-1.11.42,1.58,1.58,0,0,0-.4,1.17V6.81h-.86V.13h.86V2.72a1.7,1.7,0,0,1,.7-.53A2.41,2.41,0,0,1,809.32,2Zm7.28,6.56a7.09,7.09,0,0,1-.79-1.9,9.49,9.49,0,0,1-.28-2.31A9.51,9.51,0,0,1,815.81,2a6.83,6.83,0,0,1,.79-1.9h.82a7.73,7.73,0,0,0-.79,2,9.29,9.29,0,0,0-.25,2.23,9.35,9.35,0,0,0,.25,2.23,7.66,7.66,0,0,0,.79,2Zm4.6-8a2.93,2.93,0,0,1,1.93.59,2,2,0,0,1,.7,1.61,2,2,0,0,1-.7,1.61,2.93,2.93,0,0,1-1.93.59h-1.55v1.9h-.9V.51Zm0,3.61a2,2,0,0,0,1.3-.36,1.28,1.28,0,0,0,.45-1,1.28,1.28,0,0,0-.45-1,2,2,0,0,0-1.3-.36h-1.53V4.12Zm5.11-2.82h-2.16V.51h5.21V1.3h-2.16V6.81h-.89Zm6.85,5.59a3.49,3.49,0,0,1-1.71-.42,3.13,3.13,0,0,1-1.19-1.15,3.31,3.31,0,0,1-.43-1.66A3.21,3.21,0,0,1,830.24,2a3,3,0,0,1,1.2-1.16,3.49,3.49,0,0,1,1.71-.42,3.68,3.68,0,0,1,1.35.25,2.88,2.88,0,0,1,1,.73L835,2a2.33,2.33,0,0,0-1.77-.75,2.58,2.58,0,0,0-1.27.32,2.26,2.26,0,0,0-.89.87,2.45,2.45,0,0,0-.32,1.23A2.53,2.53,0,0,0,831,4.91a2.3,2.3,0,0,0,.89.86,2.57,2.57,0,0,0,1.27.31A2.36,2.36,0,0,0,835,5.33l.59.56a2.75,2.75,0,0,1-1.06.74A3.42,3.42,0,0,1,833.14,6.89Zm3.12,1.67a7.32,7.32,0,0,0,.79-2,8.85,8.85,0,0,0,.27-2.23,8.79,8.79,0,0,0-.27-2.23,7.38,7.38,0,0,0-.79-2h.82a6.23,6.23,0,0,1,.8,1.89,9.13,9.13,0,0,1,.28,2.33,9,9,0,0,1-.28,2.31,6.4,6.4,0,0,1-.8,1.9Z"/><path class="cls-14" d="M692.62,34.81V30.22l-2.27,3.83h-.42l-2.27-3.8v4.56h-.87v-6.3h.74l2.63,4.43,2.59-4.43h.74v6.3ZM695.34,30h.87v4.77h-.87Zm1-1.86h1.1l-1.51,1.17h-.81ZM700.49,30a1.91,1.91,0,0,1,1.44.53,2,2,0,0,1,.54,1.54v2.74h-.86V32.17a1.46,1.46,0,0,0-.34-1.05,1.26,1.26,0,0,0-.95-.35,1.47,1.47,0,0,0-1.11.42,1.58,1.58,0,0,0-.4,1.17v2.45h-.87V30h.83v.72a1.76,1.76,0,0,1,.7-.56A2.38,2.38,0,0,1,700.49,30Zm3.67,0H705v4.77h-.86Zm.43-.91a.57.57,0,0,1-.42-.17.53.53,0,0,1-.16-.39.54.54,0,0,1,.16-.4.57.57,0,0,1,.42-.17.57.57,0,0,1,.42.16.51.51,0,0,1,.17.39A.57.57,0,0,1,705,29,.57.57,0,0,1,704.59,29.13Zm8.14.87a1.91,1.91,0,0,1,1.42.52,2.05,2.05,0,0,1,.53,1.55v2.74h-.86V32.17a1.55,1.55,0,0,0-.32-1.05,1.18,1.18,0,0,0-.91-.35,1.36,1.36,0,0,0-1.05.42,1.62,1.62,0,0,0-.38,1.17v2.45h-.87V32.17a1.55,1.55,0,0,0-.32-1.05,1.17,1.17,0,0,0-.91-.35,1.33,1.33,0,0,0-1,.42,1.62,1.62,0,0,0-.39,1.17v2.45h-.87V30h.83v.71a1.63,1.63,0,0,1,.69-.55,2.37,2.37,0,0,1,2,0,1.58,1.58,0,0,1,.67.66,1.8,1.8,0,0,1,.74-.65A2.59,2.59,0,0,1,712.73,30Zm5.7,4.87a2.61,2.61,0,0,1-1.28-.32,2.45,2.45,0,0,1-.89-.86,2.5,2.5,0,0,1-.31-1.26,2.44,2.44,0,0,1,.31-1.25,2.4,2.4,0,0,1,.89-.87,2.61,2.61,0,0,1,1.28-.31,2.52,2.52,0,0,1,1.27.31,2.23,2.23,0,0,1,.88.87,2.36,2.36,0,0,1,.33,1.25,2.42,2.42,0,0,1-.33,1.26,2.27,2.27,0,0,1-.88.86A2.52,2.52,0,0,1,718.43,34.87Zm0-.76a1.59,1.59,0,0,0,.82-.21,1.5,1.5,0,0,0,.58-.59,1.81,1.81,0,0,0,.2-.88,1.75,1.75,0,0,0-.2-.87,1.46,1.46,0,0,0-.58-.6,1.59,1.59,0,0,0-.82-.21,1.68,1.68,0,0,0-.83.21,1.5,1.5,0,0,0-.57.6,1.75,1.75,0,0,0-.21.87,1.82,1.82,0,0,0,.21.88,1.54,1.54,0,0,0,.57.59A1.68,1.68,0,0,0,718.43,34.11ZM729,32.45a1.42,1.42,0,0,1,0,.27h-3.87a1.54,1.54,0,0,0,.55,1,2,2,0,0,0,2.56-.19l.48.55a2,2,0,0,1-.81.58,2.85,2.85,0,0,1-1.08.2,2.91,2.91,0,0,1-1.34-.31,2.31,2.31,0,0,1-.91-.87,2.7,2.7,0,0,1,0-2.51,2.29,2.29,0,0,1,.85-.87,2.44,2.44,0,0,1,1.23-.31,2.36,2.36,0,0,1,1.22.31,2.2,2.2,0,0,1,.84.87A2.62,2.62,0,0,1,729,32.45Zm-2.36-1.72a1.51,1.51,0,0,0-1,.37,1.57,1.57,0,0,0-.49,1h3.06a1.49,1.49,0,0,0-1.53-1.37Zm9.62-.73a1.91,1.91,0,0,1,1.42.52,2.09,2.09,0,0,1,.53,1.55v2.74h-.86V32.17a1.5,1.5,0,0,0-.33-1.05,1.17,1.17,0,0,0-.91-.35,1.36,1.36,0,0,0-1,.42,1.62,1.62,0,0,0-.39,1.17v2.45h-.86V32.17a1.55,1.55,0,0,0-.32-1.05,1.2,1.2,0,0,0-.91-.35,1.36,1.36,0,0,0-1.05.42,1.62,1.62,0,0,0-.39,1.17v2.45h-.86V30h.83v.71a1.6,1.6,0,0,1,.68-.55,2.16,2.16,0,0,1,1-.2,2.12,2.12,0,0,1,1,.22,1.56,1.56,0,0,1,.66.66,1.83,1.83,0,0,1,.75-.65A2.56,2.56,0,0,1,736.27,30Zm10.18,4v.78h-4.53V34.2l2.57-2.47a3.14,3.14,0,0,0,.63-.78,1.6,1.6,0,0,0,.16-.66.93.93,0,0,0-.35-.77,1.52,1.52,0,0,0-1-.28,2,2,0,0,0-1.61.69l-.61-.53a2.33,2.33,0,0,1,1-.71,3.4,3.4,0,0,1,1.34-.25,2.39,2.39,0,0,1,1.57.48,1.55,1.55,0,0,1,.59,1.28,2.1,2.1,0,0,1-.22.95,3.68,3.68,0,0,1-.82,1L743.22,34Zm6.14-.77H751.4v1.55h-.88V33.26H747v-.63l3.22-4.12h1l-3.09,4h2.42V31.12h.85v1.37h1.19ZM756.16,30a1.94,1.94,0,0,1,1.44.53,2,2,0,0,1,.54,1.54v2.74h-.87V32.17a1.5,1.5,0,0,0-.33-1.05,1.27,1.27,0,0,0-1-.35,1.46,1.46,0,0,0-1.1.42,1.59,1.59,0,0,0-.41,1.17v2.45h-.86V28.14h.86v2.58a1.76,1.76,0,0,1,.7-.53A2.46,2.46,0,0,1,756.16,30Z"/><path class="cls-14" d="M784.25,28.51l-2.76,6.3h-.89l-2.77-6.3h1l2.27,5.18,2.28-5.18Zm2.45,6.36a2.61,2.61,0,0,1-1.28-.32,2.45,2.45,0,0,1-.89-.86,2.5,2.5,0,0,1-.31-1.26,2.44,2.44,0,0,1,.31-1.25,2.4,2.4,0,0,1,.89-.87A2.61,2.61,0,0,1,786.7,30a2.52,2.52,0,0,1,1.27.31,2.23,2.23,0,0,1,.88.87,2.36,2.36,0,0,1,.33,1.25,2.42,2.42,0,0,1-.33,1.26,2.27,2.27,0,0,1-.88.86A2.52,2.52,0,0,1,786.7,34.87Zm0-.76a1.59,1.59,0,0,0,.82-.21,1.5,1.5,0,0,0,.58-.59,1.81,1.81,0,0,0,.2-.88,1.75,1.75,0,0,0-.2-.87,1.46,1.46,0,0,0-.58-.6,1.59,1.59,0,0,0-.82-.21,1.61,1.61,0,0,0-.82.21,1.52,1.52,0,0,0-.58.6,1.75,1.75,0,0,0-.21.87,1.82,1.82,0,0,0,.21.88,1.56,1.56,0,0,0,.58.59A1.61,1.61,0,0,0,786.7,34.11Zm3.76-6h.87v6.67h-.87ZM799.61,34v.78h-4.52V34.2l2.56-2.47a2.92,2.92,0,0,0,.63-.78,1.47,1.47,0,0,0,.17-.66.91.91,0,0,0-.36-.77,1.48,1.48,0,0,0-1-.28,2,2,0,0,0-1.61.69l-.61-.53a2.46,2.46,0,0,1,1-.71,3.44,3.44,0,0,1,1.34-.25,2.42,2.42,0,0,1,1.58.48,1.55,1.55,0,0,1,.58,1.28,2.23,2.23,0,0,1-.21.95,4.1,4.1,0,0,1-.82,1L796.38,34Zm6.15-.77h-1.2v1.55h-.87V33.26h-3.5v-.63l3.22-4.12h1l-3.09,4h2.43V31.12h.84v1.37h1.2ZM809.32,30a1.91,1.91,0,0,1,1.44.53,2,2,0,0,1,.54,1.54v2.74h-.86V32.17a1.46,1.46,0,0,0-.34-1.05,1.25,1.25,0,0,0-1-.35,1.47,1.47,0,0,0-1.11.42,1.58,1.58,0,0,0-.4,1.17v2.45h-.86V28.14h.86v2.58a1.7,1.7,0,0,1,.7-.53A2.41,2.41,0,0,1,809.32,30Zm7.28,6.56a7.09,7.09,0,0,1-.79-1.9,9.71,9.71,0,0,1,0-4.63,6.64,6.64,0,0,1,.79-1.89h.82a7.39,7.39,0,0,0-.79,2,10.07,10.07,0,0,0,0,4.46,7.66,7.66,0,0,0,.79,2Zm6.38-5a1.5,1.5,0,0,1,1.18,1.56,1.43,1.43,0,0,1-.62,1.26,3,3,0,0,1-1.79.44h-3v-6.3h2.82a2.84,2.84,0,0,1,1.67.43,1.42,1.42,0,0,1,.59,1.2,1.6,1.6,0,0,1-.23.86A1.5,1.5,0,0,1,823,31.55Zm-3.33-2.31v2h1.84a1.93,1.93,0,0,0,1.06-.25.88.88,0,0,0,.38-.76.85.85,0,0,0-.38-.75,1.84,1.84,0,0,0-1.06-.26Zm2.07,4.84a2.11,2.11,0,0,0,1.15-.25.87.87,0,0,0,.39-.79c0-.7-.52-1.05-1.54-1.05h-2.07v2.09Zm8.14.73-1.36-1.93-.4,0h-1.55v1.91h-.9v-6.3h2.45a2.93,2.93,0,0,1,1.93.59,2,2,0,0,1,.7,1.61,2.11,2.11,0,0,1-.36,1.24,2.08,2.08,0,0,1-1,.75l1.49,2.11Zm-1.78-2.68a2,2,0,0,0,1.3-.37,1.28,1.28,0,0,0,.45-1.05,1.27,1.27,0,0,0-.45-1.05,2,2,0,0,0-1.3-.36h-1.53v2.83Zm4.2-3.62h.9V34h3.41v.78h-4.31Zm4.77,8.05a7.69,7.69,0,0,0,.8-2,9.69,9.69,0,0,0,0-4.46,7.41,7.41,0,0,0-.8-2h.82a6.17,6.17,0,0,1,.8,1.88,9.13,9.13,0,0,1,.28,2.33,9,9,0,0,1-.28,2.31,6.4,6.4,0,0,1-.8,1.9Z"/><path class="cls-3" d="M688.22,11.51v6.3h-.89V12.3h-1.42v-.79Zm3.88,2.65a2.23,2.23,0,0,1,1.41.57A1.63,1.63,0,0,1,694,16a1.83,1.83,0,0,1-.27,1,1.85,1.85,0,0,1-.81.69,3,3,0,0,1-1.31.26,4.25,4.25,0,0,1-1.29-.2,2.86,2.86,0,0,1-1-.57l.42-.71a2.35,2.35,0,0,0,.82.49,3.21,3.21,0,0,0,1.07.18,1.73,1.73,0,0,0,1.09-.29,1,1,0,0,0,.4-.82.94.94,0,0,0-.39-.81,1.93,1.93,0,0,0-1.17-.29H691v-.63l1.58-1.94h-3v-.79h4.16v.62Zm3.42,3.71a.6.6,0,0,1-.61-.62.59.59,0,0,1,.18-.44.6.6,0,0,1,.86,0,.6.6,0,0,1,.17.44.6.6,0,0,1-.6.62ZM698.86,14a3.07,3.07,0,0,1,2,.52,1.65,1.65,0,0,1,.64,1.38,1.91,1.91,0,0,1-.27,1,1.78,1.78,0,0,1-.8.7,3.07,3.07,0,0,1-1.32.26,4.23,4.23,0,0,1-1.28-.2,2.91,2.91,0,0,1-1-.57l.41-.71a2.5,2.5,0,0,0,.83.49,3.15,3.15,0,0,0,1.06.18,1.76,1.76,0,0,0,1.1-.29,1.07,1.07,0,0,0,0-1.69,2.82,2.82,0,0,0-1.48-.29h-1.43l.33-3.3h3.56v.79h-2.8L698.16,14ZM705,14a2.59,2.59,0,0,1,1.11.23,1.82,1.82,0,0,1,1.05,1.68,1.91,1.91,0,0,1-.29,1,2,2,0,0,1-.8.7,2.65,2.65,0,0,1-1.14.25,2.45,2.45,0,0,1-2-.82,3.52,3.52,0,0,1-.68-2.33,4.05,4.05,0,0,1,.36-1.79,2.65,2.65,0,0,1,1.05-1.12,3.06,3.06,0,0,1,1.56-.39,3.46,3.46,0,0,1,.87.1,2.32,2.32,0,0,1,.7.27l-.34.7a2.15,2.15,0,0,0-1.21-.29,2,2,0,0,0-1.54.61,2.51,2.51,0,0,0-.55,1.76v.23a1.73,1.73,0,0,1,.74-.62A2.65,2.65,0,0,1,705,14Zm-.1,3.17a1.43,1.43,0,0,0,1-.34,1.11,1.11,0,0,0,.39-.89,1.07,1.07,0,0,0-.4-.88,1.53,1.53,0,0,0-1-.33,1.65,1.65,0,0,0-.75.16,1.32,1.32,0,0,0-.52.44,1.12,1.12,0,0,0-.18.62,1.17,1.17,0,0,0,.17.61,1.26,1.26,0,0,0,.52.44A1.8,1.8,0,0,0,704.93,17.16Z"/><path class="cls-3" d="M782.12,14.51a1.87,1.87,0,0,1,.83.59,1.54,1.54,0,0,1,.29.93,1.67,1.67,0,0,1-.31,1,1.93,1.93,0,0,1-.87.64,3.65,3.65,0,0,1-1.34.23,3.58,3.58,0,0,1-1.32-.23,1.9,1.9,0,0,1-.86-.64,1.71,1.71,0,0,1,0-1.92,1.87,1.87,0,0,1,.83-.59,1.58,1.58,0,0,1-.66-.55,1.45,1.45,0,0,1-.22-.81,1.49,1.49,0,0,1,.28-.91,1.81,1.81,0,0,1,.8-.59,3.1,3.1,0,0,1,1.18-.21,3.14,3.14,0,0,1,1.2.21,1.7,1.7,0,0,1,.8.59,1.5,1.5,0,0,1,.29.91,1.45,1.45,0,0,1-.23.81A1.58,1.58,0,0,1,782.12,14.51Zm-1.4-2.34a1.58,1.58,0,0,0-1,.28.86.86,0,0,0-.37.74.88.88,0,0,0,.36.74,1.73,1.73,0,0,0,1,.26,1.78,1.78,0,0,0,1-.26.87.87,0,0,0,.38-.74.86.86,0,0,0-.39-.74A1.65,1.65,0,0,0,780.72,12.17Zm0,5a2,2,0,0,0,1.18-.31,1,1,0,0,0,.44-.85,1,1,0,0,0-.44-.82,2.45,2.45,0,0,0-2.35,0,1,1,0,0,0-.42.82,1,1,0,0,0,.42.85A2,2,0,0,0,780.72,17.16Zm6,.73a2.43,2.43,0,0,1-1.33-.38,2.7,2.7,0,0,1-.91-1.12,4.17,4.17,0,0,1-.33-1.73,4.2,4.2,0,0,1,.33-1.73,2.64,2.64,0,0,1,.91-1.1,2.36,2.36,0,0,1,1.33-.39,2.3,2.3,0,0,1,1.32.39,2.58,2.58,0,0,1,.92,1.1,4.2,4.2,0,0,1,.33,1.73,4.17,4.17,0,0,1-.33,1.73,2.64,2.64,0,0,1-.92,1.12A2.37,2.37,0,0,1,786.72,17.89Zm0-.81a1.4,1.4,0,0,0,1.21-.62,3,3,0,0,0,.46-1.8,3,3,0,0,0-.46-1.8,1.42,1.42,0,0,0-1.21-.62,1.45,1.45,0,0,0-1.22.62,3.07,3.07,0,0,0-.45,1.8,3,3,0,0,0,.45,1.8A1.43,1.43,0,0,0,786.72,17.08Zm4-.45a.51.51,0,0,1,.41.18.59.59,0,0,1,.18.44,1.17,1.17,0,0,1,0,.26c0,.08-.06.21-.12.38l-.42,1.26h-.57l.34-1.35a.58.58,0,0,1-.28-.2.62.62,0,0,1-.1-.35.6.6,0,0,1,.6-.62Zm6.93-.37h-1.2v1.55h-.87V16.26h-3.5v-.63l3.22-4.12h1l-3.09,4h2.43V14.12h.84v1.37h1.2Zm2.93-2.1a2.28,2.28,0,0,1,1.42.57A1.67,1.67,0,0,1,802.5,16a1.83,1.83,0,0,1-.27,1,1.85,1.85,0,0,1-.81.69,3,3,0,0,1-1.3.26,4.36,4.36,0,0,1-1.3-.2,3,3,0,0,1-1-.57l.42-.71a2.31,2.31,0,0,0,.83.49,3.12,3.12,0,0,0,1.07.18,1.74,1.74,0,0,0,1.09-.29,1,1,0,0,0,.39-.82,1,1,0,0,0-.38-.81,2,2,0,0,0-1.17-.29h-.51v-.63l1.59-1.94h-3v-.79h4.16v.62Zm7.32-2.65v.62l-2.55,5.68h-1l2.49-5.51H804v1.12h-.87V11.51Zm1,6.36a.63.63,0,0,1-.43-.17.61.61,0,0,1-.18-.45.59.59,0,0,1,.18-.44.6.6,0,0,1,.43-.18.58.58,0,0,1,.43.18.6.6,0,0,1,.17.44.61.61,0,0,1-.18.45A.59.59,0,0,1,808.92,17.87Zm3.58-6.43a2.4,2.4,0,0,1,2,.82,3.51,3.51,0,0,1,.69,2.32,4,4,0,0,1-.38,1.8,2.59,2.59,0,0,1-1,1.13,3.16,3.16,0,0,1-1.56.38,4.63,4.63,0,0,1-.86-.09,2.7,2.7,0,0,1-.71-.28l.35-.71a2.17,2.17,0,0,0,1.21.3,2,2,0,0,0,1.53-.6,2.57,2.57,0,0,0,.56-1.78v-.22a1.7,1.7,0,0,1-.75.62,2.62,2.62,0,0,1-1.07.21,2.51,2.51,0,0,1-1.11-.24,1.77,1.77,0,0,1-.77-.66,1.91,1.91,0,0,1-.27-1,1.89,1.89,0,0,1,.29-1,1.94,1.94,0,0,1,.8-.7A2.47,2.47,0,0,1,812.5,11.44Zm.08,3.17a1.81,1.81,0,0,0,.76-.16,1.3,1.3,0,0,0,.51-.44,1.09,1.09,0,0,0,.19-.63,1.06,1.06,0,0,0-.18-.6,1.17,1.17,0,0,0-.51-.44,1.8,1.8,0,0,0-.81-.17,1.52,1.52,0,0,0-1,.33,1.23,1.23,0,0,0,0,1.79A1.61,1.61,0,0,0,812.58,14.61Z"/><path class="cls-3" d="M688.22,39.51v6.3h-.89V40.3h-1.42v-.79Zm4,6.37a2.42,2.42,0,0,1-1.33-.37,2.62,2.62,0,0,1-.91-1.12,4.17,4.17,0,0,1-.33-1.73,4.12,4.12,0,0,1,.33-1.72,2.54,2.54,0,0,1,.91-1.11,2.36,2.36,0,0,1,1.33-.39,2.3,2.3,0,0,1,1.32.39,2.47,2.47,0,0,1,.91,1.11,4,4,0,0,1,.34,1.72,4,4,0,0,1-.34,1.73,2.55,2.55,0,0,1-.91,1.12A2.37,2.37,0,0,1,692.26,45.88Zm0-.8a1.4,1.4,0,0,0,1.21-.62,3,3,0,0,0,.46-1.8,3,3,0,0,0-.46-1.8,1.42,1.42,0,0,0-1.21-.62,1.44,1.44,0,0,0-1.22.62,3.07,3.07,0,0,0-.45,1.8,3,3,0,0,0,.45,1.8A1.42,1.42,0,0,0,692.26,45.08Zm4,.79a.6.6,0,0,1-.61-.62.59.59,0,0,1,.18-.44.58.58,0,0,1,.43-.18.54.54,0,0,1,.42.18.57.57,0,0,1,.17.44.61.61,0,0,1-.18.45A.57.57,0,0,1,696.27,45.87Zm5.47-3.36a1.87,1.87,0,0,1,.83.59,1.47,1.47,0,0,1,.29.93,1.6,1.6,0,0,1-.31,1,1.88,1.88,0,0,1-.87.64,3.6,3.6,0,0,1-1.33.22,3.55,3.55,0,0,1-1.32-.22,1.93,1.93,0,0,1-.87-.64,1.66,1.66,0,0,1-.3-1,1.53,1.53,0,0,1,.28-.93,1.83,1.83,0,0,1,.82-.59,1.61,1.61,0,0,1-.65-.55,1.45,1.45,0,0,1-.23-.81,1.49,1.49,0,0,1,.28-.91,1.81,1.81,0,0,1,.8-.59,3.51,3.51,0,0,1,2.39,0,1.75,1.75,0,0,1,.8.59,1.5,1.5,0,0,1,.29.91,1.38,1.38,0,0,1-.24.81A1.58,1.58,0,0,1,701.74,42.51Zm-1.39-2.34a1.62,1.62,0,0,0-1,.28.89.89,0,0,0-.37.74.86.86,0,0,0,.36.73,2.08,2.08,0,0,0,2,0,.91.91,0,0,0,0-1.47A1.67,1.67,0,0,0,700.35,40.17Zm0,5a2,2,0,0,0,1.18-.31A1,1,0,0,0,702,44a.92.92,0,0,0-.43-.81,2,2,0,0,0-1.18-.31,1.91,1.91,0,0,0-1.17.31.93.93,0,0,0-.42.81,1,1,0,0,0,.42.85A2,2,0,0,0,700.35,45.16Zm7.28-2.65a1.93,1.93,0,0,1,.83.59,1.53,1.53,0,0,1,.28.93,1.66,1.66,0,0,1-.3,1,2,2,0,0,1-.88.64,4.1,4.1,0,0,1-2.65,0A2,2,0,0,1,704,45a1.66,1.66,0,0,1-.3-1,1.53,1.53,0,0,1,.28-.93,1.87,1.87,0,0,1,.83-.59,1.58,1.58,0,0,1-.66-.55,1.45,1.45,0,0,1-.23-.81,1.56,1.56,0,0,1,.28-.91,1.81,1.81,0,0,1,.8-.59,3.51,3.51,0,0,1,2.39,0,1.75,1.75,0,0,1,.8.59,1.5,1.5,0,0,1,.29.91,1.38,1.38,0,0,1-.24.81A1.61,1.61,0,0,1,707.63,42.51Zm-1.4-2.34a1.64,1.64,0,0,0-1,.28.89.89,0,0,0-.37.74.85.85,0,0,0,.37.73,1.66,1.66,0,0,0,1,.27,1.73,1.73,0,0,0,1-.27.89.89,0,0,0,0-1.47A1.65,1.65,0,0,0,706.23,40.17Zm0,5a2,2,0,0,0,1.18-.31,1,1,0,0,0,.43-.85.92.92,0,0,0-.43-.81,2,2,0,0,0-1.18-.31,1.91,1.91,0,0,0-1.17.31.93.93,0,0,0-.42.81,1,1,0,0,0,.42.85A2,2,0,0,0,706.23,45.16Z"/><path class="cls-3" d="M780.22,39.51v6.3h-.89V40.3h-1.42v-.79Zm2.06,6.36a.6.6,0,0,1-.61-.62.59.59,0,0,1,.18-.44.6.6,0,0,1,.86,0,.6.6,0,0,1,.17.44.61.61,0,0,1-.18.45A.59.59,0,0,1,782.28,45.87Zm6.05-.84v.78h-4.52V45.2l2.56-2.47A3.14,3.14,0,0,0,787,42a1.46,1.46,0,0,0,.16-.66.9.9,0,0,0-.35-.77,1.48,1.48,0,0,0-1-.28,2,2,0,0,0-1.61.69l-.61-.53a2.56,2.56,0,0,1,1-.71,3.63,3.63,0,0,1,1.34-.25,2.42,2.42,0,0,1,1.58.48,1.55,1.55,0,0,1,.58,1.28,2.23,2.23,0,0,1-.21.95,4.1,4.1,0,0,1-.82,1L785.1,45Zm2.79-5.52v6.3h-.89V40.3H788.8v-.79ZM801.45,41a1.91,1.91,0,0,1,1.42.52,2.09,2.09,0,0,1,.53,1.55v2.74h-.87V43.17a1.48,1.48,0,0,0-.32-1.05,1.17,1.17,0,0,0-.91-.35,1.34,1.34,0,0,0-1,.42,1.62,1.62,0,0,0-.39,1.17v2.45H799V43.17a1.49,1.49,0,0,0-.33-1.05,1.17,1.17,0,0,0-.91-.35,1.36,1.36,0,0,0-1,.42,1.62,1.62,0,0,0-.39,1.17v2.45h-.86V41h.83v.71a1.6,1.6,0,0,1,.68-.55,2.12,2.12,0,0,1,1-.2,2.07,2.07,0,0,1,1,.22,1.58,1.58,0,0,1,.67.66,1.83,1.83,0,0,1,.75-.65A2.53,2.53,0,0,1,801.45,41Zm3.63,0h.86v4.77h-.86Zm.43-.91a.57.57,0,0,1-.42-.17.53.53,0,0,1-.16-.39.54.54,0,0,1,.16-.4.57.57,0,0,1,.42-.17.53.53,0,0,1,.41.16.48.48,0,0,1,.18.39.6.6,0,0,1-.59.58Z"/></g></g></svg>