<svg xmlns="http://www.w3.org/2000/svg" viewBox="0 0 232.43 195.2"><defs><style>.cls-1,.cls-2{fill:#462cc6;}.cls-1{opacity:0.5;}.cls-2{opacity:0.4;}</style></defs><g id="Camada_2" data-name="Camada 2"><g id="Camada_1-2" data-name="Camada 1"><path class="cls-1" d="M.84,35.24A24,24,0,0,1,30.23,5.86l71.08,19L172.39,44a24,24,0,0,1,10.76,40.14l-52,52-52,52A24,24,0,0,1,38.93,177.4l-19-71.08Z"/><path class="cls-1" d="M54.77,21.19A24,24,0,0,1,93,4.81L151.9,48.87l58.93,44.07a24,24,0,0,1-4.91,41.27l-67.63,29-67.63,29a24,24,0,0,1-33.28-24.89l8.69-73.07Z"/><path class="cls-2" d="M114,31.75a24,24,0,0,1,41.56,0l36.79,63.73,36.79,63.73a24,24,0,0,1-20.77,36H61.23a24,24,0,0,1-20.78-36L77.24,95.48Z"/></g></g></svg>