<svg xmlns="http://www.w3.org/2000/svg" xmlns:xlink="http://www.w3.org/1999/xlink" viewBox="0 0 261.63 395.1"><defs><style>.cls-1{fill:none;}.cls-2{fill:#f8e0d8;}.cls-3{clip-path:url(#clip-path);}.cls-4{fill:#6584f3;}.cls-5{fill:#c36358;}.cls-6{fill:#3c3278;}.cls-7{fill:#d64c9e;}.cls-8{fill:#faa2b6;}.cls-9{fill:#ed776a;}.cls-10{fill:#fff;}</style><clipPath id="clip-path" transform="translate(25.3)"><circle id="SVGID" class="cls-1" cx="102.03" cy="102.03" r="102.03"/></clipPath></defs><g id="Camada_2" data-name="Camada 2"><g id="Camada_1-2" data-name="Camada 1"><circle class="cls-2" cx="127.33" cy="102.03" r="102.03"/><g class="cls-3"><path class="cls-4" d="M236.29,334.57c-.06-.42-.14-.82-.22-1.24.1.52.2,1,.26,1.54C236.31,334.77,236.31,334.67,236.29,334.57Z" transform="translate(25.3)"/><path class="cls-4" d="M167.39,346.76a6.08,6.08,0,0,0,.72.38l.1-.18,0,0-.74-.16A.18.18,0,0,1,167.39,346.76Z" transform="translate(25.3)"/><path class="cls-5" d="M69,154.16c-43.25,48.65-95.61,149-83.88,168.16,13.07,21.36,75.46-47.92,73.32-51.06-1.83-2.67,18.46-62.68,33.18-106.57S79.66,142.13,69,154.16Z" transform="translate(25.3)"/><path class="cls-6" d="M69,154.16c-43.25,48.65-95.61,149-83.88,168.16,13.07,21.36,75.46-47.92,73.32-51.06-1.83-2.67,18.46-62.68,33.18-106.57S79.66,142.13,69,154.16Z" transform="translate(25.3)"/><path class="cls-2" d="M30.26,217.49c.25,2.84-2.32,5.25-4.35,6.86s-4.67,3-7.23,2.2q3.72-6.51,7.64-13A4.17,4.17,0,0,1,30.26,217.49Z" transform="translate(25.3)"/><path class="cls-2" d="M91.81,138.44c-2.06-.4-4.48,1-6.11,2.88-2.56,1.19-5.06,3.25-4.33,6a4.6,4.6,0,0,0,4.42,3.26,7.65,7.65,0,0,0,5.11-2.28c1.5-1.32,3.19-3.13,3.66-5.14A3.86,3.86,0,0,0,91.81,138.44Z" transform="translate(25.3)"/><path class="cls-2" d="M54.21,176.66A7.21,7.21,0,0,1,49.93,178q3.68-5.06,7.34-9.77C59.81,170.66,56.51,175.16,54.21,176.66Z" transform="translate(25.3)"/><path class="cls-2" d="M76.6,172.63a2.65,2.65,0,0,0-3-2.31l-.12,0a1.53,1.53,0,0,0-.7,0c-2.21.62-5.09,2.24-5.6,4.7-.67,3.19,3.24,4.29,5.53,3.09C74.64,177.17,76.86,175,76.6,172.63Z" transform="translate(25.3)"/><path class="cls-2" d="M43.31,195.53a2.92,2.92,0,0,0-3.37-.07,4.55,4.55,0,0,0-.92.8,4.57,4.57,0,0,0-.69.54,3.21,3.21,0,0,0-.76,3.25,1.72,1.72,0,0,0,1.77,1.09,5.51,5.51,0,0,0,4.44-3.48A1.84,1.84,0,0,0,43.31,195.53Z" transform="translate(25.3)"/><path class="cls-2" d="M89.43,160.84A2.15,2.15,0,0,0,87.76,159a2.5,2.5,0,0,0-2,.56,8.69,8.69,0,0,0-1,.84,3.3,3.3,0,0,0-1.39,1,1.71,1.71,0,0,0,.48,2.55,1.88,1.88,0,0,0,2,.51,1.62,1.62,0,0,0,.39-.21,3.55,3.55,0,0,0,1-.28A3.21,3.21,0,0,0,89.43,160.84Z" transform="translate(25.3)"/><path class="cls-6" d="M27.24,344.5l10.87-73.59S20.7,240.52,30.8,218.7c5.09-11,40.05-65,58.88-78.71,17.67-12.82,41.87-1.12,50.1,10,23.66,32.07,35.19,89.79,48.41,194.48Z" transform="translate(25.3)"/><path class="cls-7" d="M58.92,173.93q-5.36,7.35-10.45,14.89c.93-1.95,1.87-3.9,2.78-5.86a.12.12,0,0,0-.21-.11c-1.27,2.45-2.43,4.94-3.57,7.44q-6.84,10.13-13.25,20.52a53,53,0,0,0-4.7,9.18,41.42,41.42,0,0,0-2.31,9.76,53.25,53.25,0,0,0-.16,10A70.27,70.27,0,0,0,28.51,250a65.52,65.52,0,0,0,3.6,11.17c.75,1.76,1.56,3.51,2.43,5.21s2.41,4.75,2.39,4.87c-.33,1.76-.66,3-.88,4.48s-.46,3-.68,4.53c-.46,3-4.38,32.41-4.82,35.44-.88,6-1.64,12-2.38,18-.43,3.45-.66,6.94-1.15,10.38,0,.14.2.2.22.06.5-3,1.24-6,1.79-9s1.1-6,1.66-9c1.13-6,5.5-38.53,6.45-44.61.26-1.68.52-3.37.79-5.05a33.25,33.25,0,0,0,.64-5.61s-5.39-11.07-7.48-18.84a66.07,66.07,0,0,1-2.14-10,52.4,52.4,0,0,1-.13-9.94,44.38,44.38,0,0,1,1.91-9.76A50.21,50.21,0,0,1,35,213.1c3.52-6.25,7.26-12.39,11-18.48q6.45-10.35,13.1-20.59C59.18,173.91,59,173.82,58.92,173.93Z" transform="translate(25.3)"/><path class="cls-2" d="M132.16,181a3,3,0,0,0-2.59-1.49h-.23l-.21,0a3.9,3.9,0,0,0-1.4.13c-2.5.71-4.9,3.89-5.15,6.68a3.12,3.12,0,0,0,.18,3.3c1.34,2.08,4.11,1.8,5.94.59C131.85,188.73,133.87,183.93,132.16,181Z" transform="translate(25.3)"/><path class="cls-2" d="M147.49,162.17a4.15,4.15,0,0,0-6.84-2.14,13.4,13.4,0,0,0-3.81,6.08,12,12,0,0,0-1.84,2.7,2.79,2.79,0,0,0,1.64,4c3,1,5.77-1,7.7-3.19C146.08,167.73,148.21,164.93,147.49,162.17Z" transform="translate(25.3)"/><path class="cls-2" d="M132.37,235.32a4.16,4.16,0,0,0-6.84-2.15,13.43,13.43,0,0,0-3.81,6.09,12.16,12.16,0,0,0-1.84,2.69,2.79,2.79,0,0,0,1.64,4c3,.95,5.76-1,7.7-3.19C131,240.87,133.09,238.07,132.37,235.32Z" transform="translate(25.3)"/><path class="cls-2" d="M149.75,181.78c-2.27-.73-3.88,1-5,2.72l-.84,1.29a6.57,6.57,0,0,0-2.36,3.72,3,3,0,0,0,2.82,3.59,6.4,6.4,0,0,0,4.75-2C151.34,189,154.16,183.2,149.75,181.78Z" transform="translate(25.3)"/><path class="cls-2" d="M121.47,165a4.33,4.33,0,0,0-4.21,1.23,7.57,7.57,0,0,0-1,1.21c-1.45.94-2.68,2-2.57,4.11a3.28,3.28,0,0,0,3.13,3.11c1.74.09,3.25-1,4.53-2.07s2.61-2.35,2.69-4.07A3.53,3.53,0,0,0,121.47,165Z" transform="translate(25.3)"/><path class="cls-2" d="M108.37,186.23a3.48,3.48,0,0,0-3.77.13,5.69,5.69,0,0,0-2,2.71,3.55,3.55,0,0,0-1.18,3.74,3.41,3.41,0,0,0,3,2.61,4.28,4.28,0,0,0,3.39-1.7C109.29,191.9,111.05,187.92,108.37,186.23Z" transform="translate(25.3)"/><path class="cls-2" d="M117.14,198.55a4.48,4.48,0,0,0-3.52.07c-3.57-.24-6.16,3.18-6.77,6.53-.29,1.62,0,3.55,1.51,4.48,1.89,1.15,4.09-.19,5.68-1.25a10.1,10.1,0,0,0,4-4.8C118.66,201.91,119.12,199.38,117.14,198.55Z" transform="translate(25.3)"/><path class="cls-2" d="M98.2,229.55a2.65,2.65,0,0,0-3.31-1.78l-.11,0a1.69,1.69,0,0,0-.69.15c-2.07,1-4.64,3.06-4.73,5.57-.12,3.26,3.91,3.69,6,2.12C97,234.35,98.84,231.8,98.2,229.55Z" transform="translate(25.3)"/><path class="cls-2" d="M118.34,220c-1.88-1.19-4.07-.34-5.4,1.22a17,17,0,0,0-1.14,1.51,11.44,11.44,0,0,0-4.23,6.11,3.64,3.64,0,0,0,2.92,4.55,6.82,6.82,0,0,0,5.84-2.2C118.83,228.67,122.54,222.67,118.34,220Z" transform="translate(25.3)"/><path class="cls-2" d="M134.22,203.15a2.42,2.42,0,0,0-3.28-1.63,7.47,7.47,0,0,0-3.52,3.14,3.46,3.46,0,0,0-.89.9,3,3,0,0,0-.1,3.14c1.63,2.63,5.69,0,7-1.76A4.45,4.45,0,0,0,134.22,203.15Z" transform="translate(25.3)"/><path class="cls-2" d="M141.56,211.49a2.92,2.92,0,0,0-3.34.49,4.88,4.88,0,0,0-.78.94,5.09,5.09,0,0,0-.58.65,3.22,3.22,0,0,0-.21,3.33,1.72,1.72,0,0,0,1.93.78,5.52,5.52,0,0,0,3.8-4.18A1.83,1.83,0,0,0,141.56,211.49Z" transform="translate(25.3)"/><path class="cls-2" d="M80.09,209.79a2.16,2.16,0,0,0-2-1.58,2.52,2.52,0,0,0-1.88.89,7.84,7.84,0,0,0-.82,1,3.45,3.45,0,0,0-1.21,1.22,1.71,1.71,0,0,0,.91,2.43,1.87,1.87,0,0,0,2,.18,2,2,0,0,0,.35-.27,3.71,3.71,0,0,0,1-.46A3.23,3.23,0,0,0,80.09,209.79Z" transform="translate(25.3)"/><path class="cls-2" d="M94.56,143.19c-.48,2-2.16,3.82-3.66,5.15a7.73,7.73,0,0,1-5.11,2.28,4.63,4.63,0,0,1-4.39-3.19A68.53,68.53,0,0,1,89.68,140c.76-.54,1.52-1.05,2.31-1.51A3.89,3.89,0,0,1,94.56,143.19Z" transform="translate(25.3)"/><path class="cls-2" d="M76.6,172.63a2.65,2.65,0,0,0-3-2.31l-.12,0a1.53,1.53,0,0,0-.7,0c-2.21.62-5.09,2.24-5.6,4.7-.67,3.19,3.24,4.29,5.53,3.09C74.64,177.17,76.86,175,76.6,172.63Z" transform="translate(25.3)"/><path class="cls-2" d="M43.92,196.79a2.44,2.44,0,0,1-.13.87,5.11,5.11,0,0,1-2.14,2.61C42.37,199.15,43.13,198,43.92,196.79Z" transform="translate(25.3)"/><path class="cls-2" d="M89.43,160.84A2.15,2.15,0,0,0,87.76,159a2.5,2.5,0,0,0-2,.56,8.69,8.69,0,0,0-1,.84,3.3,3.3,0,0,0-1.39,1,1.71,1.71,0,0,0,.48,2.55,1.88,1.88,0,0,0,2,.51,1.62,1.62,0,0,0,.39-.21,3.55,3.55,0,0,0,1-.28A3.21,3.21,0,0,0,89.43,160.84Z" transform="translate(25.3)"/><path class="cls-5" d="M-14.91,322.32c11,14.16,39.16,15.51,109.64,25.54,9.75,1.39,38.07-64.8,27.73-66.82-13-2.54-64.11-9.58-67.91-9.63C22.49,271.05-22.4,312.71-14.91,322.32Z" transform="translate(25.3)"/><path class="cls-5" d="M108.34,278.59s29.79,2.92,45,9.31c20.32,8.55,34.35,24.29,39.82,31.24,11.44,14.52,29.06,57.52,17.56,64.75-10.41,6.55-26.2-38.31-26.2-38.31s23.65,43.08,9.66,48.66S164.8,346.7,164.8,346.7s23.3,44.82,8,48.29c-11.59,2.63-28.22-44.7-28.22-44.7s19.77,38.65,8,41.87c-13,3.55-31.13-39.18-31.13-39.18C90,356.1,73.82,344.76,63.25,335.31,60.69,333,108.34,278.59,108.34,278.59Z" transform="translate(25.3)"/><path class="cls-6" d="M177.26,330.15c3,5,6,10,8.5,15.17s4.84,10.51,6.85,15.92c4.94,13.29,5.95,22.38,5.83,21.83-2.93-13.12-11.62-31.9-14.13-37.11s-4.75-10.52-7.25-15.72C177,330.11,177.19,330,177.26,330.15Z" transform="translate(25.3)"/><path class="cls-6" d="M158.29,338.87c3.51,6.5,7.23,12.82,10.45,19.48s5.66,13.18,8.4,20c.21.52-.14.46-.37-.06-3-6.71-6.31-12.68-9.4-19.35s-5.92-13.47-9.24-20C158.08,338.84,158.24,338.77,158.29,338.87Z" transform="translate(25.3)"/><path class="cls-6" d="M140.67,343.43c5.87,9.65,10,20.38,13.69,31,.19.53-.26.4-.48-.13-4.36-10.39-7.7-18.57-13.55-30.67C140.24,343.44,140.55,343.23,140.67,343.43Z" transform="translate(25.3)"/><path class="cls-6" d="M130.85,279.1l-58,68.28S-6.44,341.86-15.56,321s51.22-51.31,70-49.67S130.85,279.1,130.85,279.1Z" transform="translate(25.3)"/><path class="cls-6" d="M23.92,280.35c4.56-3.11,17.5-10.5,30.53-9a.12.12,0,0,1,0,.23c-10.68.32-25.75,6.34-30.42,9C23.91,280.61,23.81,280.43,23.92,280.35Z" transform="translate(25.3)"/><path class="cls-7" d="M60.55,335.58c22.81-24.16,43.11-53,47-57.78.18-.22-.21-.5-.38-.26-3.58,4.89-30.36,35.33-47,57.75C60,335.55,60.33,335.81,60.55,335.58Z" transform="translate(25.3)"/><path class="cls-5" d="M151.37,165.26c46.6,59.31,64.19,165.84,38.32,174.15C166.05,347,68.84,322.67,39.89,312.83c-8.51-2.89,17.76-69,26.86-65.93,11,3.72,71.12,18,72.28,18,2.5.06-10.86-65.53-16.59-95.25C114.45,128.23,133.87,143,151.37,165.26Z" transform="translate(25.3)"/><path class="cls-5" d="M-11,222.05c-4.92,5.59-.93,12.18-.93,12.18s-5.74,1.53-8.67,6.44c-3.35,5.61,4,13.33,4,13.33a19.55,19.55,0,0,0-8.06,8.24c-2.67,5.7,3.63,14.54,3.63,14.54s-3.71,5.38-2.52,11.71c2,10.84,17.69,17,27.61,21s41.83,6.09,47.86,7.1l26.29-63.46s-39.38-30.64-51.71-33.7C16.13,216.86-5.44,215.78-11,222.05Z" transform="translate(25.3)"/><path class="cls-6" d="M-11,233.39c11.7.09,22.74,3.64,34,6.55.25.06.14.45-.11.39-11.13-3-22.71-3.81-33.93-6.38A.29.29,0,0,1-11,233.39Z" transform="translate(25.3)"/><path class="cls-6" d="M-16,253.25a30.37,30.37,0,0,1,7.77,1.86c2.69.85,5.38,1.74,8,2.67q8,2.81,15.88,6c.23.1.15.48-.1.39-5.33-1.85-10.69-3.63-16.09-5.26q-4.06-1.21-8.13-2.38c-2.53-.72-5.25-1.27-7.58-2.54A.41.41,0,0,1-16,253.25Z" transform="translate(25.3)"/><path class="cls-6" d="M-20.79,276.85c2.31,0,4.77,1.25,6.9,2q3.63,1.35,7.27,2.67c4.85,1.75,9.7,3.5,14.62,5.08.24.08.14.47-.11.39-5-1.58-10-3.1-15-4.72q-3.67-1.2-7.33-2.44c-2.07-.7-4.75-1.34-6.44-2.79A.14.14,0,0,1-20.79,276.85Z" transform="translate(25.3)"/><path class="cls-6" d="M138.16,262.2c.75-.45-13.21-63.75-17.9-96.79s10.07-29.86,31.3-1.62C174.3,194,214.79,275.93,200.77,336.57c-4.55,19.63-145.22-7.87-145.22-7.87l19-80.86S137,262.9,138.16,262.2Z" transform="translate(25.3)"/><path class="cls-2" d="M128.71,190.24a5.06,5.06,0,0,1-4.19.76c-.43-2.39-.86-4.74-1.26-7.05a8,8,0,0,1,4.47-4.28,3.92,3.92,0,0,1,1.41-.14h.42a3,3,0,0,1,2.61,1.48C133.87,183.94,131.86,188.72,128.71,190.24Z" transform="translate(25.3)"/><path class="cls-2" d="M147.49,162.17a4.15,4.15,0,0,0-6.84-2.14,13.4,13.4,0,0,0-3.81,6.08,12,12,0,0,0-1.84,2.7,2.79,2.79,0,0,0,1.64,4c3,1,5.77-1,7.7-3.19C146.08,167.73,148.21,164.93,147.49,162.17Z" transform="translate(25.3)"/><path class="cls-2" d="M149.75,181.78c-2.27-.73-3.88,1-5,2.72l-.84,1.29a6.57,6.57,0,0,0-2.36,3.72,3,3,0,0,0,2.82,3.59,6.4,6.4,0,0,0,4.75-2C151.34,189,154.16,183.2,149.75,181.78Z" transform="translate(25.3)"/><path class="cls-2" d="M124.07,168.48c-.08,1.73-1.43,3.05-2.69,4.08l0,0c-.4-2.52-.78-4.92-1.09-7.18,0-.19-.05-.39-.08-.57a3.34,3.34,0,0,1,1.29.13A3.54,3.54,0,0,1,124.07,168.48Z" transform="translate(25.3)"/><path class="cls-2" d="M167.75,189.37l-.08.06c-2,1.57-6.09,1.14-6-2.11a6,6,0,0,1,2.52-4.17C165.39,185.14,166.58,187.22,167.75,189.37Z" transform="translate(25.3)"/><path class="cls-2" d="M133.39,207c-.94,1.29-3.45,3.08-5.33,2.82-.31-1.62-.62-3.25-.94-4.87a3.15,3.15,0,0,1,.3-.24,7.5,7.5,0,0,1,3.51-3.14,2.42,2.42,0,0,1,3.29,1.64A4.43,4.43,0,0,1,133.39,207Z" transform="translate(25.3)"/><path class="cls-2" d="M141.56,211.49a2.92,2.92,0,0,0-3.34.49,4.88,4.88,0,0,0-.78.94,5.09,5.09,0,0,0-.58.65,3.22,3.22,0,0,0-.21,3.33,1.72,1.72,0,0,0,1.93.78,5.52,5.52,0,0,0,3.8-4.18A1.83,1.83,0,0,0,141.56,211.49Z" transform="translate(25.3)"/><path class="cls-2" d="M151.31,163.45a.61.61,0,0,1-.19-.2A1.07,1.07,0,0,1,151,163Z" transform="translate(25.3)"/><path class="cls-7" d="M74,320.38c8.55-28.15,13.27-59,14.48-64.36,0-.25-.36-.31-.4-.06-.91,5.29-10.14,40-14.52,64.36C73.47,320.6,73.88,320.65,74,320.38Z" transform="translate(25.3)"/><path class="cls-7" d="M164.61,271.56c-2.72-.47-74.54-20.69-90.24-23.13-.25,0,0-.86.23-.82,48.26,8.52,87.91,21.42,91,22.63C169.15,271.68,169.66,272.43,164.61,271.56Z" transform="translate(25.3)"/><path class="cls-7" d="M137.46,262.85c.06-.14-8.93-41.69-9.77-43.21s-2.75-5-3.52-6.67c-1.56-3.28-2.91-6.63-4.34-9.94-.12-.28.3-.49.42-.22,1.54,3.21,3.36,6.29,5.2,9.33.92,1.49,1.83,3,2.75,4.48.07.1-4.42-23.69-5-27.86-.05-.31.29-.4.38-.14,1.35,4.2,15,69.16,16.25,74.44A20.21,20.21,0,0,1,137.46,262.85Z" transform="translate(25.3)"/><path class="cls-7" d="M84.52,333.72c-4.69-1.3-23.48-4.34-28-5,.45-1.66,1.78-8.39,1.66-10.28,0-.18-.28-.29-.39-.13-1.07,1.57-2.9,9.84-3.45,11.79-.1.38,25.32,3.57,30.19,3.83A.11.11,0,0,0,84.52,333.72Z" transform="translate(25.3)"/><path class="cls-5" d="M91.29,138.91c-4.85,3.69-31.68,47.68-29.48,51s41,7.13,44,4.94,16.68-54.14,16.68-54.14Z" transform="translate(25.3)"/><path class="cls-5" d="M122.51,140.68c-.83,2.79-15.39,20.4-28.3,19.06-4.21-.45-2.8-23.5-2.8-23.5l-.28-1.73-4-24.16L116.2,94l4.19-2.15s.65,6.69,1.38,15c0,.39.07.78.1,1.19s.11.91.14,1.35c.12,1.25.25,2.52.34,3.78.08,1,.16,1.9.2,2.92s.11,2,.18,3C123.2,129.14,122.84,139.49,122.51,140.68Z" transform="translate(25.3)"/><path class="cls-6" d="M121.77,106.83a49.12,49.12,0,0,1-30.64,27.68l-4-24.16L116.2,94l4.19-2.15S121,98.51,121.77,106.83Z" transform="translate(25.3)"/><path class="cls-8" d="M91.41,136.24s16.67,2.67,31.54-5.47c0,0,1.15,4.61-.17,6.83,0,0-15.62,8.9-31.37,3.32A5.56,5.56,0,0,1,91.41,136.24Z" transform="translate(25.3)"/><path class="cls-5" d="M55.1,76.67c-2.86,42.87,22.49,49.43,31.74,50,8.39.55,37,1.37,44.32-41s-11.74-57.24-30.87-59.52S58,33.79,55.1,76.67Z" transform="translate(25.3)"/><path class="cls-8" d="M67.66,70.22a26.83,26.83,0,0,0,2.92.56,4.85,4.85,0,0,0,3.08,0,1.55,1.55,0,0,0,.72-1.73,3.79,3.79,0,0,0-3.1-2.26,5.63,5.63,0,0,0-4,.46A1.63,1.63,0,0,0,67.66,70.22Z" transform="translate(25.3)"/><path class="cls-8" d="M97.91,69.45A28.8,28.8,0,0,1,95,68.78a4.82,4.82,0,0,1-2.82-1.25,1.53,1.53,0,0,1,0-1.86c1-1.08,2.41-1.08,3.76-.81a5.55,5.55,0,0,1,3.45,2A1.63,1.63,0,0,1,97.91,69.45Z" transform="translate(25.3)"/><path class="cls-6" d="M91.25,78.83c0-.11.22.15.22.27-.22,2.92,0,6.3,2.62,7.38.08,0,.07.18,0,.16C90.85,86.05,90.58,81.56,91.25,78.83Z" transform="translate(25.3)"/><path class="cls-6" d="M94,75.89c4.72-.15,4.68,9.29.31,9.43S90,76,94,75.89Z" transform="translate(25.3)"/><path class="cls-6" d="M95.85,76.4c.82.54,1.62,1.48,2.62,1.58,1.15.12,2-.86,2.78-1.81.08-.1.16,0,.16.11,0,1.81-.69,3.66-2.63,3.92-1.77.24-3-1.36-3.48-3.19C95.22,76.68,95.52,76.18,95.85,76.4Z" transform="translate(25.3)"/><path class="cls-6" d="M73.4,76.67c0-.11-.23.14-.23.26.06,2.93-.37,6.29-3,7.22-.09,0-.08.18,0,.17C73.39,83.9,73.92,79.44,73.4,76.67Z" transform="translate(25.3)"/><path class="cls-6" d="M70.83,73.58c-4.7-.42-5.19,9-.84,9.4S74.77,73.93,70.83,73.58Z" transform="translate(25.3)"/><path class="cls-6" d="M68.83,74.1c-.77.46-1.56,1.33-2.45,1.34s-1.74-1-2.35-2.06c-.07-.1-.14,0-.15.1-.15,1.8.35,3.71,2.06,4.14s2.81-1.08,3.33-2.86C69.37,74.44,69.14,73.92,68.83,74.1Z" transform="translate(25.3)"/><path class="cls-6" d="M88.37,101.53c-.67.71-1.33,1.68-2.39,1.81a7.71,7.71,0,0,1-3.17-.6c-.1,0-.19.07-.12.15a3.94,3.94,0,0,0,3.77,1.44,3.11,3.11,0,0,0,2.19-2.68C88.69,101.48,88.47,101.42,88.37,101.53Z" transform="translate(25.3)"/><path class="cls-6" d="M76.3,90.76s-.67,4.36-.7,6.42c0,.19.49.29,1.19.34,0,0,0,0,.08,0A9.83,9.83,0,0,0,86.45,94c.14-.2-.12-.42-.31-.29-2.74,2-5.76,2.42-9,2.42-.14-.57,1.4-7.43,1.07-7.46-1.12-.11-3.35.62-4.69,1,1.13-9.12,3.72-18,4.72-27.09a.28.28,0,0,0-.53-.14c-3.38,9.1-4.92,19.57-6.34,29C71.21,92.58,75.47,91.1,76.3,90.76Z" transform="translate(25.3)"/><path class="cls-6" d="M77.45,96.74a11.56,11.56,0,0,0,4.42,3.89A5.27,5.27,0,0,0,85,101c2.33-.46,2.51-2.56,2.2-4.39a12.79,12.79,0,0,0-.85-2.82A15,15,0,0,1,77.45,96.74Z" transform="translate(25.3)"/><path class="cls-8" d="M81.87,100.63A5.27,5.27,0,0,0,85,101c2.33-.46,2.51-2.56,2.2-4.39C84.76,96.73,82.22,98.25,81.87,100.63Z" transform="translate(25.3)"/><path class="cls-8" d="M126.85,90.53C129,87.9,143,74.1,143.92,66.86c.54-4.23-6.11-15.93-6.11-15.93l6-3.8-5.45,1.32,8.36-13.14-10.12,8.56s-1.49-10.86-2.36-13.5-18-17.21-18-17.21l5,9.3S89.61,8.6,85.6,8.83c-10.07.6-32.21,16.1-32.21,16.1L77,21.82S54.17,30.59,49.47,34.64,41.57,59,41.57,59L62.49,45.68,54.81,57.05s18,3.18,23.24,3.13C89.18,60.08,115,51.5,115,51.5s-.86,9.75-.51,12.8c.6,5.31,5.47,16.51,5.47,16.51L122.84,72Z" transform="translate(25.3)"/><path class="cls-5" d="M122.65,87.67s9.11-13.6,15.26-10.37-.51,22.8-7.61,25.6a7.27,7.27,0,0,1-9.81-3.72Z" transform="translate(25.3)"/><path class="cls-6" d="M135.86,82.86a.1.1,0,0,1,0,.19c-5,2.13-7.51,6.82-9.26,11.68,1.45-1.89,3.46-2.94,6-1.22.13.09,0,.3-.13.27a4.47,4.47,0,0,0-4.89,1.66,21.81,21.81,0,0,0-2.28,4c-.22.46-1,.23-.88-.29,0,0,0-.07,0-.11C124.23,92.67,129,83.64,135.86,82.86Z" transform="translate(25.3)"/><path class="cls-9" d="M167.49,346.78l.72.18,0,0Z" transform="translate(25.3)"/><path class="cls-4" d="M236.07,333.33c.1.52.2,1,.26,1.54,0-.1,0-.2,0-.3C236.23,334.15,236.15,333.75,236.07,333.33Z" transform="translate(25.3)"/><path class="cls-4" d="M236.07,333.33c.1.52.2,1,.26,1.54,0-.1,0-.2,0-.3C236.23,334.15,236.15,333.75,236.07,333.33Z" transform="translate(25.3)"/><path class="cls-4" d="M164.24,354.25v0c.75.18,1.49.36,2.23.52Z" transform="translate(25.3)"/><path class="cls-10" d="M236.07,333.33c.1.52.2,1,.26,1.54,0-.1,0-.2,0-.3C236.23,334.15,236.15,333.75,236.07,333.33Z" transform="translate(25.3)"/></g></g></g></svg>